<svg xmlns="http://www.w3.org/2000/svg" version="1.1" xmlns:xlink="http://www.w3.org/1999/xlink" viewBox="0 0 10.47838430660743 3.0646876201926636"><g transform="matrix(0.7308574316976337,0,0,0.7308574316976337,3.2915106498658435,0.9957227037338195)"><rect width="11.60697363384077" height="11.60697363384077" x="-3.1385600898105555" y="-5.069251816920385" fill="#f9f9f9"></rect><g transform="matrix(1,0,0,1,0,0)" clip-path="url(#SvgjsClipPath156875)"><g clip-path="url(#SvgjsClipPath1568701eac19b5-a6c6-4289-8612-f491c5c6168a)"><path d=" M -1.677263491398564 0.03318178892421836 L -0.3999999999999999 0.03318178892421836 L -0.3999999999999999 1.5822995127101556 L -1.677263491398564 1.5822995127101556 Z" fill="#66cef6" transform="matrix(1,0,0,1,0,0)" fill-rule="nonzero"></path></g><g clip-path="url(#SvgjsClipPath1568701eac19b5-a6c6-4289-8612-f491c5c6168a)"><path d=" M -0.7662658619563636 -0.026810527960534708 L -0.8828267352532502 -0.026810527960534708 C -0.8822289610797494 -0.03235647075676151 -0.8819288719084444 -0.03793046749185916 -0.8819277590397696 -0.043508532947108935 C -0.8818907749906626 -0.13008217350681472 -0.9520342044010597 -0.20029838801761957 -1.0386078367574336 -0.20035119146933894 C -1.125181469113807 -0.2002983880176197 -1.1953248985242046 -0.13008217350681509 -1.1952879144750983 -0.04350853294710871 C -1.1952818785525507 -0.03792901955239411 -1.194962590227261 -0.03235424539283552 -1.1943315568011812 -0.026810527960528546 L -1.3109211208282856 -0.026810527960528546 C -1.318020567452728 -0.026784467735604556 -1.3237752435390204 -0.021046855181073604 -1.3238223858494136 -0.013947517246364005 L -1.3238223858494136 0.18608425382991445 C -1.3238065589160637 0.19321251716142462 -1.3180207090341165 0.19898124914431237 -1.3108924300980687 0.19897595527430256 L -0.7662658619563636 0.19897595527430256 C -0.7591413158236564 0.1989759728397637 -0.7533612903875084 0.1932087823971826 -0.7533454697817581 0.18608425382991445 L -0.7533454697817581 -0.013947517246364005 C -0.7533874966275529 -0.02105646601833905 -0.7591567965421928 -0.02680014357954641 -0.7662658619563636 -0.026810527960534708 Z" fill="#ffffff" transform="matrix(1,0,0,1,0,0)" fill-rule="nonzero"></path></g><g clip-path="url(#SvgjsClipPath1568701eac19b5-a6c6-4289-8612-f491c5c6168a)"><path d=" M -0.7662658619563636 0.23244847386136397 L -1.310940247981765 0.23244847386136397 C -1.3365274767909443 0.23240633807793182 -1.357258047092008 0.21167149078691544 -1.3572949044364755 0.18608425382991461 L -1.3572949044364755 -0.013947517246364005 C -1.3572579823112023 -0.03955184672345732 -1.3364967840340205 -0.0602916505259086 -1.3108924300980669 -0.06030217370107424 L -1.2279762197695487 -0.06030217370107424 C -1.2192124233947879 -0.15840692147833801 -1.1370935388934436 -0.23364593377547477 -1.0385982731806949 -0.233814146479661 C -0.9400816181743665 -0.23366480415422392 -0.8579379058497452 -0.1584099490532314 -0.8491820722848844 -0.060283046547596 L -0.7662562983796248 -0.060283046547596 C -0.7406556785360416 -0.060267250772561315 -0.7199003016515808 -0.03952898819598233 -0.7198633876179581 -0.013928390092885684 L -0.7198633876179581 0.18608425382991445 C -0.719900301663654 0.21169013374984752 -0.7406599603004131 0.2324326780761088 -0.7662658619563607 0.23244847386136414 Z M -1.2903976851460484 0.16550343668724132 L -0.7868179883688193 0.16550343668724132 L -0.7868179883688193 0.006661990626526615 L -0.8828267352532502 0.006661990626526615 C -0.8923126884513339 0.0066544865788491225 -0.9013499984777795 0.002622455951665742 -0.9076920347750679 -0.0044317583908993485 C -0.9140382750822209 -0.01149342993620922 -0.9170870745136319 -0.02091793992315913 -0.916079291575312 -0.03035861493076311 C -0.9156122264107278 -0.03472641922399447 -0.9153759963377364 -0.039115829364032795 -0.9153715868966135 -0.043508532947108436 C -0.9153978580595179 -0.11156963937423367 -0.9705181334216977 -0.16676264971129706 -1.0385791460271927 -0.16687867288227734 C -1.1066379730862237 -0.16675739121225916 -1.161755172618348 -0.1115674607640406 -1.1617867051578195 -0.043508532947108575 C -1.161786437397312 -0.03918834624093506 -1.1615437787807479 -0.03487157716739786 -1.1610598733256303 -0.03057857719565088 C -1.1599896568436963 -0.021105915046427698 -1.1630092100560112 -0.011626326908688006 -1.1693610579352343 -0.004517830581551807 C -1.1757098218595212 0.0025930881321060695 -1.1847893145246404 0.006659726800889332 -1.1943219932244429 0.006661990626526615 L -1.2903498672623523 0.006661990626526615 Z M -0.7662658619563636 0.006661990626526615 L -0.7662658619563636 0.006661990626526615 Z" fill="#1e235b" transform="matrix(1,0,0,1,0,0)" fill-rule="nonzero"></path></g><g clip-path="url(#SvgjsClipPath1568701eac19b5-a6c6-4289-8612-f491c5c6168a)"><path d=" M -0.5993431935510587 0.5221961583277059 L -1.0913413988971639 0.5221961583277059 C -1.1098277604512259 0.5221961583277059 -1.1248139174842255 0.5072100012947063 -1.1248139174842255 0.4887236397406446 C -1.1248139174842255 0.4702372781865828 -1.1098277604512259 0.4552511211535831 -1.0913413988971639 0.4552511211535831 L -0.5993431935510587 0.4552511211535831 C -0.5808568319969967 0.4552511211535831 -0.5658706749639975 0.4702372781865828 -0.5658706749639975 0.4887236397406446 C -0.5658706749639975 0.5072100012947063 -0.5808568319969967 0.5221961583277059 -0.5993431935510587 0.5221961583277059 Z" fill="#1e235b" transform="matrix(1,0,0,1,0,0)" fill-rule="nonzero"></path></g><g clip-path="url(#SvgjsClipPath1568701eac19b5-a6c6-4289-8612-f491c5c6168a)"><path d=" M -1.2501828449578793 0.5221961583277059 L -1.4778724799638092 0.5221961583277059 C -1.4963588415178712 0.5221961583277059 -1.5113449985508702 0.5072100012947063 -1.5113449985508702 0.4887236397406446 C -1.5113449985508702 0.4702372781865828 -1.4963588415178712 0.4552511211535831 -1.4778724799638092 0.4552511211535831 L -1.2501828449578793 0.4552511211535831 C -1.2316964834038173 0.4552511211535831 -1.2167103263708179 0.4702372781865828 -1.2167103263708179 0.4887236397406446 C -1.2167103263708179 0.5072100012947063 -1.2316964834038173 0.5221961583277059 -1.2501828449578793 0.5221961583277059 Z" fill="#1e235b" transform="matrix(1,0,0,1,0,0)" fill-rule="nonzero"></path></g><g clip-path="url(#SvgjsClipPath1568701eac19b5-a6c6-4289-8612-f491c5c6168a)"><path d=" M -0.5993431935510587 0.7686112765889122 L -0.7704068906844199 0.7686112765889122 C -0.788893252238482 0.7686112765889122 -0.8038794092714812 0.7536251195559125 -0.8038794092714812 0.7351387580018509 C -0.8038794092714812 0.7166523964477892 -0.788893252238482 0.7016662394147896 -0.7704068906844199 0.7016662394147896 L -0.5993431935510587 0.7016662394147896 C -0.5808568319969967 0.7016662394147896 -0.5658706749639975 0.7166523964477892 -0.5658706749639975 0.7351387580018509 C -0.5658706749639975 0.7536251195559125 -0.5808568319969967 0.7686112765889122 -0.5993431935510587 0.7686112765889122 Z" fill="#1e235b" transform="matrix(1,0,0,1,0,0)" fill-rule="nonzero"></path></g><g clip-path="url(#SvgjsClipPath1568701eac19b5-a6c6-4289-8612-f491c5c6168a)"><path d=" M -0.8806079854497655 0.7686112765889122 L -1.477882043540549 0.7686112765889122 C -1.4963684050946107 0.7686112765889122 -1.5113545621276103 0.7536251195559125 -1.5113545621276103 0.7351387580018509 C -1.5113545621276103 0.7166523964477892 -1.4963684050946107 0.7016662394147896 -1.477882043540549 0.7016662394147896 L -0.8806079854497662 0.7016662394147896 C -0.8621216238957039 0.7016662394147896 -0.8471354668627049 0.7166523964477892 -0.8471354668627049 0.7351387580018509 C -0.8471354668627049 0.7536251195559125 -0.8621216238957039 0.7686112765889119 -0.8806079854497655 0.7686112765889122 Z" fill="#1e235b" transform="matrix(1,0,0,1,0,0)" fill-rule="nonzero"></path></g><g clip-path="url(#SvgjsClipPath1568701eac19b5-a6c6-4289-8612-f491c5c6168a)"><path d=" M -0.5993431935510587 1.0148733776222918 L -0.8244219721071981 1.0148733776222918 C -0.8429083336612602 1.0148733776222918 -0.8578944906942594 0.9998872205892921 -0.8578944906942594 0.9814008590352306 C -0.8578944906942594 0.9629144974811688 -0.8429083336612602 0.9479283404481693 -0.8244219721071981 0.9479283404481693 L -0.5993431935510587 0.9479283404481693 C -0.5808568319969967 0.9479283404481693 -0.5658706749639975 0.9629144974811688 -0.5658706749639975 0.9814008590352306 C -0.5658706749639975 0.9998872205892921 -0.5808568319969967 1.0148733776222918 -0.5993431935510587 1.0148733776222918 Z" fill="#1e235b" transform="matrix(1,0,0,1,0,0)" fill-rule="nonzero"></path></g><g clip-path="url(#SvgjsClipPath1568701eac19b5-a6c6-4289-8612-f491c5c6168a)"><path d=" M -0.9238353523107699 1.0148733776222918 L -1.0466986226787636 1.0148733776222918 C -1.0651849842328251 1.0148733776222918 -1.0801711412658248 0.9998872205892921 -1.0801711412658248 0.9814008590352306 C -1.0801711412658248 0.9629144974811688 -1.0651849842328251 0.9479283404481693 -1.0466986226787636 0.9479283404481693 L -0.9238353523107699 0.9479283404481693 C -0.9053489907567085 0.9479283404481693 -0.8903628337237086 0.9629144974811688 -0.8903628337237086 0.9814008590352306 C -0.8903628337237086 0.9998872205892921 -0.9053489907567085 1.0148733776222918 -0.9238353523107699 1.0148733776222918 Z" fill="#1e235b" transform="matrix(1,0,0,1,0,0)" fill-rule="nonzero"></path></g><g clip-path="url(#SvgjsClipPath1568701eac19b5-a6c6-4289-8612-f491c5c6168a)"><path d=" M -0.5993431935510587 1.2613554409206724 L -1.0466986226787636 1.2613554409206724 C -1.0651849842328251 1.2613554409206724 -1.0801711412658248 1.2463692838876725 -1.0801711412658248 1.2278829223336112 C -1.0801711412658248 1.2093965607795494 -1.0651849842328251 1.1944104037465495 -1.0466986226787636 1.1944104037465495 L -0.5993431935510587 1.1944104037465495 C -0.5808568319969967 1.1944104037465495 -0.5658706749639975 1.2093965607795494 -0.5658706749639975 1.2278829223336112 C -0.5658706749639975 1.2463692838876725 -0.5808568319969967 1.2613554409206724 -0.5993431935510587 1.2613554409206724 Z" fill="#1e235b" transform="matrix(1,0,0,1,0,0)" fill-rule="nonzero"></path></g><g clip-path="url(#SvgjsClipPath1568701eac19b5-a6c6-4289-8612-f491c5c6168a)"><path d=" M -1.5635143096629904 1.6688211914693392 C -1.2012555863603338 1.4878591924109466 -1.150559066066045 1.0497230512597922 -1.150559066066045 1.0497230512597922 C -1.3950614689794194 1.0497230512597922 -1.5635143096629904 0.8354032965352081 -1.5635143096629904 0.8354032965352081 C -1.5635143096629904 0.8354032965352081 -1.731957586769822 1.0497230512597922 -1.976498243990153 1.0497230512597922 C -1.976498243990153 1.0497230512597924 -1.925763469388907 1.4878591924109466 -1.5635143096629904 1.6688211914693392 Z" fill="#ffffff" transform="matrix(1,0,0,1,0,0)" fill-rule="nonzero"></path></g><g clip-path="url(#SvgjsClipPath1568701eac19b5-a6c6-4289-8612-f491c5c6168a)"><path d=" M -1.5635143096629904 1.7022841464796614 C -1.5687031069540833 1.702282311198754 -1.5738204303352556 1.7010741907076135 -1.578462180106298 1.6987551866629114 C -1.9526275564492086 1.5118542064494997 -2.007598995545903 1.072197456596819 -2.009779491042431 1.0535676091089345 C -2.010874093367562 1.0440846619660666 -2.00786776997293 1.034585515128862 -2.001516560739796 1.0274590446110274 C -1.9951663351453395 1.0203300256839958 -1.9860740952434637 1.0162519142546047 -1.976526934720371 1.0162505326727311 C -1.7508265236761853 1.0162505326727311 -1.5914399537413388 0.8167351947403672 -1.5898524000026382 0.8147172800484042 C -1.5835076104044172 0.8066458644844701 -1.573809650329175 0.8019326065344161 -1.5635430003932083 0.801930777948147 C -1.553272993802211 0.8019296727633294 -1.5435709012575594 0.8066432257183436 -1.5372240372070387 0.8147172800484042 C -1.5356556106218167 0.8166969404334106 -1.375379628050228 1.0162505326727311 -1.1505877567962632 1.0162505326727311 C -1.1410405962731704 1.0162519142546047 -1.1319483563712947 1.0203300256839958 -1.125598130776837 1.027459044611027 C -1.119246921543703 1.034585515128862 -1.116240598149071 1.0440846619660666 -1.1173352004742023 1.0535676091089348 C -1.1194870052405141 1.072197456596819 -1.1744201900302507 1.5118542064494997 -1.5485855663731614 1.6987551866629114 C -1.553221534586307 1.7010713070037855 -1.558331975084379 1.7022793483515042 -1.5635143096629904 1.7022841464796616 Z M -1.93712499855503 1.0815028167640222 C -1.9163433463008346 1.1849233356213025 -1.834058332037099 1.4867211267789866 -1.5635143096629904 1.6311502626937862 C -1.2923390912240977 1.4864150923233328 -1.210474874336885 1.1848659541608673 -1.1898749300407332 1.081502816764022 C -1.3732086961304382 1.0657611694513638 -1.5088202142917324 0.9437873117201125 -1.5635143096629904 0.8860137446388445 C -1.6181892778807698 0.9438160024503301 -1.7538103596188037 1.0657229151444076 -1.93712499855503 1.0815028167640222 Z" fill="#1e235b" transform="matrix(1,0,0,1,0,0)" fill-rule="nonzero"></path></g><g clip-path="url(#SvgjsClipPath1568701eac19b5-a6c6-4289-8612-f491c5c6168a)"><path d=" M -1.3478078363112278 1.2448391438921422 C -1.3478052996899814 1.3020488351872939 -1.3705306375880109 1.3569160945607521 -1.4109839982918093 1.397369455264293 C -1.4514373589956082 1.4378228159678343 -1.5063046183692115 1.4605481538655147 -1.563514309663676 1.4605456172439046 C -1.6207297492389503 1.4605583021320165 -1.6756058544165908 1.4378371390648306 -1.7160659710400004 1.3973824032531015 C -1.7565260876634092 1.3569276674413722 -1.7792545490163199 1.3020545846491465 -1.77924947374497 1.2448391438921422 C -1.7792520120100797 1.1876253600951387 -1.7565224306953184 1.1327547345573992 -1.716062589131099 1.0923020673600952 C -1.67560274756688 1.0518494001627918 -1.6207280921096112 1.0291295497651056 -1.5635143096626798 1.029142234117119 C -1.5063062754058154 1.0291396976253961 -1.4514404654576414 1.051863722748624 -1.4109873797008512 1.0923150149746783 C -1.3705342939440603 1.1327663072007323 -1.3478078362549961 1.1876311095787357 -1.3478078363112278 1.244839143892142 Z" fill="#66cef6" transform="matrix(1,0,0,1,0,0)" fill-rule="nonzero"></path></g><g clip-path="url(#SvgjsClipPath1568701eac19b5-a6c6-4289-8612-f491c5c6168a)"><path d=" M -1.4499468358854606 1.2783116624792035 L -1.6770817834405196 1.2783116624792035 C -1.6955681449945816 1.2783116624792035 -1.7105543020275809 1.2633255054462038 -1.7105543020275809 1.2448391438921422 C -1.7105543020275809 1.2263527823380804 -1.6955681449945816 1.211366625305081 -1.6770817834405196 1.211366625305081 L -1.4499468358854606 1.211366625305081 C -1.431460474331399 1.211366625305081 -1.4164743172983993 1.2263527823380804 -1.4164743172983993 1.2448391438921422 C -1.4164743172983993 1.2633255054462038 -1.431460474331399 1.2783116624792035 -1.4499468358854606 1.2783116624792035 Z" fill="#1e235b" transform="matrix(1,0,0,1,0,0)" fill-rule="nonzero"></path></g><g clip-path="url(#SvgjsClipPath1568701eac19b5-a6c6-4289-8612-f491c5c6168a)"><path d=" M -1.5635143096629904 1.391812191219559 C -1.5820006712170525 1.391812191219559 -1.5969868282500517 1.376826034186559 -1.5969868282500517 1.3583396726324977 L -1.5969868282500517 1.1312047250774386 C -1.5969868282500517 1.1127183635233768 -1.5820006712170525 1.0977322064903774 -1.5635143096629904 1.0977322064903774 C -1.5450279481089284 1.0977322064903774 -1.5300417910759292 1.1127183635233768 -1.5300417910759292 1.1312047250774386 L -1.5300417910759292 1.3583396726324977 C -1.5300417910759292 1.376826034186559 -1.5450279481089284 1.391812191219559 -1.5635143096629904 1.391812191219559 Z" fill="#1e235b" transform="matrix(1,0,0,1,0,0)" fill-rule="nonzero"></path></g></g><g><path d=" M 0.7887105 0.3813285000000004 L 0.800553 0.3197475000000005 Q 0.791079 0.1918485000000003 0.6276525 0.1918485000000003 Q 0.5329125 0.1918485000000003 0.46304175 0.2593507500000005 Q 0.393171 0.3268530000000005 0.393171 0.4014607500000005 Q 0.393171 0.47606850000000045 0.45593625 0.5317282500000005 Q 0.5187015 0.5873880000000004 0.60752025 0.6312052500000004 Q 0.6963389999999999 0.6750225000000004 0.78515775 0.7259452500000004 Q 0.8739764999999999 0.7768680000000004 0.9367417499999999 0.8573970000000004 Q 0.9995069999999999 0.9379260000000004 0.9995069999999999 1.0397715000000005 Q 0.9995069999999999 1.2505680000000003 0.833712 1.3713615000000003 Q 0.667917 1.4921550000000003 0.4760685 1.4921550000000003 Q 0.28422 1.4921550000000003 0.156321 1.4222842500000004 Q 0.028422 1.3524135000000004 0.028422 1.2103035000000004 Q 0.028422 1.1345115000000003 0.080529 1.0729305000000005 Q 0.132636 1.0113495000000003 0.2297445 1.0113495000000003 Q 0.2676405 1.0113495000000003 0.298431 1.0326660000000003 Q 0.3292215 1.0539825000000005 0.336327 1.0895100000000004 Q 0.336327 1.1250375000000004 0.293694 1.1250375000000004 Q 0.213165 1.1250375000000004 0.213165 1.1937240000000005 Q 0.2155335 1.2718845000000003 0.28777274999999997 1.3358340000000004 Q 0.360012 1.3997835000000003 0.49146375 1.3997835000000003 Q 0.6229155 1.3997835000000003 0.71647125 1.3097805000000005 Q 0.8100269999999999 1.2197775000000004 0.8100269999999999 1.0918785000000004 Q 0.8100269999999999 1.0066125000000004 0.7460775 0.9379260000000004 Q 0.682128 0.8692395000000004 0.592125 0.8206852500000004 Q 0.502122 0.7721310000000005 0.41093475 0.7223925000000004 Q 0.3197475 0.6726540000000004 0.25579799999999997 0.6015990000000004 Q 0.1918485 0.5305440000000005 0.1918485 0.4405410000000005 Q 0.1918485 0.28185150000000037 0.32803725 0.18711150000000032 Q 0.46422599999999997 0.0923715000000005 0.6371265 0.0923715000000005 Q 0.7531829999999999 0.0923715000000005 0.847923 0.1397415000000004 Q 0.942663 0.18711150000000032 0.9450315 0.28422000000000036 Q 0.9450315 0.3410640000000005 0.9166095 0.3789600000000004 Q 0.8881875 0.41685600000000034 0.83963325 0.41685600000000034 Q 0.791079 0.41685600000000034 0.7887105 0.3813285000000004 M 1.873492751953125 0.9545055000000005 Q 1.968232751953125 0.9237150000000004 2.004944501953125 0.9012142500000004 Q 2.041656251953125 0.8787135000000004 2.060604251953125 0.8668710000000004 L 2.089026251953125 0.8502915000000004 Q 2.100868751953125 0.8431860000000004 2.107974251953125 0.8431860000000004 Q 2.126922251953125 0.8431860000000004 2.126922251953125 0.8645025000000004 Q 2.126922251953125 0.8858190000000004 2.053498751953125 0.9391102500000004 Q 1.980075251953125 0.9924015000000004 1.871124251953125 1.0350345000000005 Q 1.854544751953125 1.2339885000000004 1.745593751953125 1.3571505000000004 Q 1.636642751953125 1.4803125000000004 1.435320251953125 1.4803125000000004 Q 1.288473251953125 1.4803125000000004 1.2103127519531252 1.3630717500000005 Q 1.132152251953125 1.2458310000000004 1.132152251953125 1.0883257500000003 Q 1.132152251953125 0.9308205000000004 1.225708001953125 0.7910790000000004 Q 1.319263751953125 0.6513375000000005 1.4661107519531251 0.6513375000000005 Q 1.532428751953125 0.6039675000000004 1.623616001953125 0.6039675000000004 Q 1.714803251953125 0.6039675000000004 1.792963751953125 0.7010760000000004 Q 1.871124251953125 0.7981845000000004 1.873492751953125 0.9545055000000005 M 1.719540251953125 1.0752990000000004 L 1.634274251953125 1.0800360000000004 Q 1.525323251953125 1.0800360000000004 1.449531251953125 1.0149022500000004 Q 1.373739251953125 0.9497685000000003 1.373739251953125 0.8716080000000004 Q 1.373739251953125 0.7934475000000004 1.399792751953125 0.7366035000000004 Q 1.297947251953125 0.8171325000000004 1.297947251953125 1.0539825000000005 Q 1.297947251953125 1.1676705000000003 1.3453172519531251 1.2707002500000004 Q 1.392687251953125 1.3737300000000003 1.494532751953125 1.3737300000000003 Q 1.596378251953125 1.3737300000000003 1.653222251953125 1.2872797500000004 Q 1.7100662519531251 1.2008295000000004 1.719540251953125 1.0752990000000004 M 1.5726932519531251 0.6821280000000004 Q 1.534797251953125 0.6821280000000004 1.513480751953125 0.7164712500000004 Q 1.492164251953125 0.7508145000000004 1.492164251953125 0.7910790000000004 Q 1.492164251953125 0.8787135000000004 1.552561001953125 0.9331890000000004 Q 1.612957751953125 0.9876645000000004 1.6934867519531251 0.9876645000000004 L 1.721908751953125 0.9876645000000004 Q 1.717171751953125 0.8716080000000004 1.682828501953125 0.7768680000000004 Q 1.648485251953125 0.6821280000000004 1.5726932519531251 0.6821280000000004 M 2.0795846337890627 0.3102735000000003 Q 2.0795846337890627 0.2676405000000004 2.124586133789063 0.23685000000000045 Q 2.1695876337890625 0.2060595000000005 2.2051151337890627 0.2060595000000005 Q 2.2690646337890628 0.2060595000000005 2.2690646337890628 0.27948300000000037 Q 2.2690646337890628 0.35290650000000046 2.2311686337890624 0.40619775000000047 Q 2.1932726337890625 0.4594890000000005 2.124586133789063 0.4594890000000005 Q 2.0795846337890627 0.4594890000000005 2.0795846337890627 0.3102735000000003 M 2.1482711337890628 1.4803125000000004 Q 2.0558996337890627 1.4803125000000004 2.008529633789063 1.4424165000000004 Q 1.9919501337890626 1.4258370000000005 1.9919501337890626 1.3239915000000004 Q 1.9919501337890626 1.2221460000000004 2.0073453837890627 0.9841117500000004 Q 2.0227406337890628 0.7460775000000004 2.0345831337890625 0.7271295000000004 Q 2.0464256337890627 0.7081815000000004 2.1080066337890626 0.6560745000000004 Q 2.1695876337890625 0.6039675000000004 2.2039308837890625 0.6039675000000004 Q 2.2382741337890626 0.6039675000000004 2.2382741337890626 0.6939705000000004 Q 2.2382741337890626 0.7176555000000004 2.2252473837890627 0.7863420000000004 Q 2.2122206337890624 0.8550285000000004 2.1956411337890627 0.8858190000000004 Q 2.1648506337890625 0.9639795000000004 2.1648506337890625 1.2955695000000005 Q 2.1648506337890625 1.3595190000000004 2.1790616337890625 1.3595190000000004 Q 2.2193261337890626 1.3571505000000004 2.2903811337890625 1.2588577500000004 Q 2.361436133789063 1.1605650000000005 2.4313068837890626 1.0066125000000004 Q 2.5011776337890623 0.8526600000000004 2.5165728837890624 0.8526600000000004 Q 2.5319681337890625 0.8526600000000004 2.5319681337890625 0.8716080000000004 Q 2.5319681337890625 0.9379260000000004 2.4632816337890624 1.0824045000000004 Q 2.2761701337890625 1.4803125000000004 2.1482711337890628 1.4803125000000004 M 2.588783221435547 1.3405710000000004 L 2.591151721435547 1.4139945000000005 Q 2.591151721435547 1.4803125000000004 2.553255721435547 1.4803125000000004 Q 2.496411721435547 1.4803125000000004 2.444304721435547 1.4649172500000003 Q 2.3921977214355468 1.4495220000000004 2.3921977214355468 1.4222842500000004 Q 2.3921977214355468 1.3950465000000003 2.405224471435547 1.2351727500000005 Q 2.418251221435547 1.0752990000000004 2.418251221435547 0.9947700000000004 L 2.418251221435547 0.8550285000000004 Q 2.418251221435547 0.7413405000000004 2.441936221435547 0.7176555000000004 Q 2.465621221435547 0.6939705000000004 2.526017971435547 0.6489690000000004 Q 2.586414721435547 0.6039675000000004 2.613652471435547 0.6039675000000004 Q 2.640890221435547 0.6039675000000004 2.6479957214355467 0.6134415000000004 Q 2.655101221435547 0.6229155000000004 2.655101221435547 0.6489690000000004 Q 2.655101221435547 0.7744995000000005 2.607731221435547 0.8858190000000004 Q 2.595888721435547 1.0208235000000003 2.595888721435547 1.0729305000000005 Q 2.605362721435547 1.0587195000000005 2.695365721435547 0.9118725000000004 Q 2.785368721435547 0.7650255000000004 2.848133971435547 0.6963390000000004 Q 2.910899221435547 0.6276525000000004 2.960637721435547 0.6276525000000004 Q 3.010376221435547 0.6276525000000004 3.0494564714355468 0.6608115000000004 Q 3.088536721435547 0.6939705000000004 3.088536721435547 0.7437090000000004 Q 3.088536721435547 0.8479230000000004 3.066035971435547 1.0504297500000004 Q 3.043535221435547 1.2529365000000003 3.043535221435547 1.3062277500000004 Q 3.043535221435547 1.3595190000000004 3.057746221435547 1.3595190000000004 Q 3.098010721435547 1.3571505000000004 3.169065721435547 1.2588577500000004 Q 3.240120721435547 1.1605650000000005 3.3099914714355467 1.0066125000000004 Q 3.379862221435547 0.8526600000000004 3.395257471435547 0.8526600000000004 Q 3.4106527214355467 0.8526600000000004 3.4106527214355467 0.8716080000000004 Q 3.4106527214355467 0.9379260000000004 3.341966221435547 1.0824045000000004 Q 3.154854721435547 1.4803125000000004 3.026955721435547 1.4803125000000004 Q 2.934584221435547 1.4803125000000004 2.887214221435547 1.4424165000000004 Q 2.8706347214355468 1.4258370000000005 2.8706347214355468 1.3559662500000005 Q 2.8706347214355468 1.2860955000000005 2.883661471435547 1.1285902500000005 Q 2.896688221435547 0.9710850000000004 2.896688221435547 0.8929245000000005 Q 2.896688221435547 0.8147640000000004 2.869450471435547 0.8147640000000004 Q 2.842212721435547 0.8147640000000004 2.726156221435547 0.9770062500000004 Q 2.610099721435547 1.1392485000000003 2.602994221435547 1.1842500000000005 Q 2.588783221435547 1.2671475000000003 2.588783221435547 1.3405710000000004 M 4.353188507080079 1.4068890000000005 Q 4.481087507080078 1.4068890000000005 4.579380257080079 1.3168860000000004 Q 4.677673007080078 1.2268830000000004 4.677673007080078 1.1096422500000003 Q 4.677673007080078 0.9924015000000004 4.604249507080079 0.8929245000000005 Q 4.523720507080078 0.9331890000000004 4.445560007080078 0.9331890000000004 Q 4.263185507080078 0.9331890000000004 4.263185507080078 0.8195010000000004 Q 4.263185507080078 0.7863420000000004 4.308187007080078 0.7591042500000004 Q 4.353188507080079 0.7318665000000004 4.437270257080078 0.7318665000000004 Q 4.521352007080078 0.7318665000000004 4.620829007080078 0.7816050000000004 Q 4.715569007080078 0.6797595000000004 4.715569007080078 0.5518605000000004 Q 4.715569007080078 0.3931710000000004 4.577011757080078 0.29961525000000044 Q 4.4384545070800785 0.2060595000000005 4.279765007080078 0.2060595000000005 Q 4.246606007080079 0.2060595000000005 4.230026507080078 0.2084280000000005 Q 4.227658007080079 0.2771145000000004 4.218184007080078 0.4286985000000003 Q 4.203973007080078 0.6560745000000004 4.203973007080078 1.1226690000000004 Q 4.203973007080078 1.3026750000000005 4.1779195070800785 1.3026750000000005 Q 4.076074007080078 1.3026750000000005 4.047652007080078 1.2742530000000003 Q 4.019230007080078 1.2458310000000004 4.019230007080078 1.1108265000000004 Q 4.019230007080078 1.0776675000000004 4.032256757080078 0.8384490000000004 Q 4.045283507080078 0.5992305000000004 4.045283507080078 0.4523835000000005 Q 4.045283507080078 0.3055365000000003 4.054757507080078 0.23685000000000045 Q 3.9292270070800783 0.27948300000000037 3.9197530070800783 0.3742230000000004 Q 3.9102790070800784 0.4523835000000005 3.8854097570800783 0.48317400000000044 Q 3.8605405070800782 0.5139645000000004 3.8190917570800784 0.5139645000000004 Q 3.777643007080078 0.5139645000000004 3.763432007080078 0.4914637500000004 Q 3.749221007080078 0.46896300000000046 3.749221007080078 0.4452780000000005 Q 3.749221007080078 0.23921850000000044 4.068968507080078 0.16105800000000037 Q 4.109233007080078 4.440892098500626e-16 4.1968675070800785 4.440892098500626e-16 Q 4.232395007080078 4.440892098500626e-16 4.232395007080078 0.13263600000000042 Q 4.2939760070800785 0.12553050000000043 4.3851632570800785 0.12553050000000043 Q 4.476350507080078 0.12553050000000043 4.594775507080078 0.15987375000000048 Q 4.713200507080078 0.1942170000000003 4.800835007080078 0.2806672500000005 Q 4.888469507080078 0.36711750000000043 4.888469507080078 0.47370000000000045 Q 4.888469507080078 0.6726540000000004 4.696621007080078 0.8313435000000003 Q 4.829257007080078 0.9355575000000004 4.829257007080078 1.0800360000000004 Q 4.829257007080078 1.2245145000000004 4.739254007080078 1.3192545000000004 Q 4.571090507080078 1.4921550000000003 4.289239007080078 1.4921550000000003 Q 4.097390507080078 1.4921550000000003 4.014493007080079 1.4661015000000004 Q 3.997913507080078 1.4613645000000004 3.980149757080078 1.4412322500000003 Q 3.9623860070800783 1.4211000000000005 3.9623860070800783 1.3903095000000003 Q 3.9623860070800783 1.3405710000000004 4.059494507080078 1.3405710000000004 Q 4.0902850070800785 1.3405710000000004 4.194499007080078 1.3737300000000003 Q 4.298713007080078 1.4068890000000005 4.353188507080079 1.4068890000000005 M 4.5545110070800785 0.8408175000000004 Q 4.483456007080078 0.7816050000000004 4.420690757080078 0.7816050000000004 Q 4.357925507080078 0.7816050000000004 4.357925507080078 0.8076585000000004 Q 4.357925507080078 0.8621340000000004 4.473982007080078 0.8621340000000004 Q 4.516615007080079 0.8621340000000004 4.5545110070800785 0.8408175000000004 M 5.686610060302734 0.9545055000000005 Q 5.781350060302735 0.9237150000000004 5.818061810302734 0.9012142500000004 Q 5.854773560302735 0.8787135000000004 5.873721560302735 0.8668710000000004 L 5.902143560302735 0.8502915000000004 Q 5.913986060302735 0.8431860000000004 5.9210915603027345 0.8431860000000004 Q 5.9400395603027345 0.8431860000000004 5.9400395603027345 0.8645025000000004 Q 5.9400395603027345 0.8858190000000004 5.866616060302735 0.9391102500000004 Q 5.793192560302734 0.9924015000000004 5.684241560302734 1.0350345000000005 Q 5.667662060302734 1.2339885000000004 5.558711060302734 1.3571505000000004 Q 5.449760060302735 1.4803125000000004 5.248437560302735 1.4803125000000004 Q 5.101590560302735 1.4803125000000004 5.023430060302735 1.3630717500000005 Q 4.945269560302735 1.2458310000000004 4.945269560302735 1.0883257500000003 Q 4.945269560302735 0.9308205000000004 5.038825310302735 0.7910790000000004 Q 5.132381060302735 0.6513375000000005 5.279228060302734 0.6513375000000005 Q 5.345546060302735 0.6039675000000004 5.436733310302735 0.6039675000000004 Q 5.527920560302735 0.6039675000000004 5.606081060302735 0.7010760000000004 Q 5.684241560302734 0.7981845000000004 5.686610060302734 0.9545055000000005 M 5.532657560302734 1.0752990000000004 L 5.4473915603027345 1.0800360000000004 Q 5.338440560302734 1.0800360000000004 5.262648560302734 1.0149022500000004 Q 5.186856560302735 0.9497685000000003 5.186856560302735 0.8716080000000004 Q 5.186856560302735 0.7934475000000004 5.212910060302734 0.7366035000000004 Q 5.111064560302735 0.8171325000000004 5.111064560302735 1.0539825000000005 Q 5.111064560302735 1.1676705000000003 5.158434560302735 1.2707002500000004 Q 5.2058045603027345 1.3737300000000003 5.307650060302734 1.3737300000000003 Q 5.409495560302735 1.3737300000000003 5.4663395603027345 1.2872797500000004 Q 5.523183560302734 1.2008295000000004 5.532657560302734 1.0752990000000004 M 5.385810560302734 0.6821280000000004 Q 5.347914560302734 0.6821280000000004 5.326598060302735 0.7164712500000004 Q 5.305281560302735 0.7508145000000004 5.305281560302735 0.7910790000000004 Q 5.305281560302735 0.8787135000000004 5.365678310302735 0.9331890000000004 Q 5.426075060302734 0.9876645000000004 5.506604060302735 0.9876645000000004 L 5.535026060302735 0.9876645000000004 Q 5.530289060302735 0.8716080000000004 5.495945810302734 0.7768680000000004 Q 5.461602560302735 0.6821280000000004 5.385810560302734 0.6821280000000004 M 6.011126942138672 0.8502915000000004 L 6.1413944421386715 0.8360805000000004 Q 6.160342442138671 0.8360805000000004 6.174553442138672 0.8573970000000004 Q 6.188764442138671 0.8787135000000004 6.188764442138671 0.9023985000000004 Q 6.188764442138671 0.9260835000000004 6.173369192138671 1.0634565000000005 Q 6.157973942138671 1.2008295000000004 6.157973942138671 1.2801742500000004 Q 6.157973942138671 1.3595190000000004 6.172184942138672 1.3595190000000004 Q 6.212449442138672 1.3571505000000004 6.283504442138671 1.2588577500000004 Q 6.3545594421386715 1.1605650000000005 6.424430192138671 1.0066125000000004 Q 6.494300942138672 0.8526600000000004 6.509696192138672 0.8526600000000004 Q 6.525091442138672 0.8526600000000004 6.525091442138672 0.8716080000000004 Q 6.525091442138672 0.9379260000000004 6.456404942138672 1.0824045000000004 Q 6.269293442138672 1.4803125000000004 6.1413944421386715 1.4803125000000004 Q 6.049022942138672 1.4803125000000004 6.001652942138672 1.4424165000000004 Q 5.985073442138671 1.4258370000000005 5.985073442138671 1.2363570000000004 Q 5.985073442138671 1.0468770000000003 6.0253379421386715 0.9118725000000004 Q 5.887964942138671 0.9118725000000004 5.833489442138672 0.8242380000000004 Q 5.805067442138672 0.7792365000000004 5.805067442138672 0.7223925000000004 Q 5.805067442138672 0.6655485000000004 5.828752442138672 0.6229155000000004 Q 5.852437442138672 0.5802825000000004 5.896254692138672 0.5802825000000004 Q 5.940071942138672 0.5802825000000004 5.976783692138672 0.6264682500000004 Q 6.013495442138671 0.6726540000000004 6.013495442138671 0.7294980000000004 Q 6.013495442138671 0.7863420000000004 5.980336442138672 0.8431860000000004 Q 5.989810442138672 0.8502915000000004 6.011126942138672 0.8502915000000004 M 7.081700507080078 1.4803125000000004 Q 7.001171507080079 1.4803125000000004 6.956170007080078 1.4447850000000004 Q 6.937222007080078 1.4258370000000005 6.937222007080078 1.3453080000000004 Q 6.937222007080078 1.2647790000000003 6.944327507080078 1.1345115000000003 Q 6.880378007080078 1.3050435000000005 6.814060007080078 1.3926780000000003 Q 6.747742007080078 1.4803125000000004 6.6470807570800785 1.4803125000000004 Q 6.546419507080079 1.4803125000000004 6.476548757080078 1.3926780000000003 Q 6.406678007080078 1.3050435000000005 6.406678007080078 1.1131950000000004 Q 6.406678007080078 0.9213465000000004 6.514444757080078 0.7744995000000005 Q 6.622211507080078 0.6276525000000004 6.797480507080079 0.6276525000000004 Q 6.882746507080078 0.6276525000000004 6.975118007080078 0.6939705000000004 Q 7.013014007080078 0.23211300000000046 7.043804507080078 0.17290050000000035 Q 7.0580155070800785 0.1468470000000004 7.1113067570800785 0.09710850000000049 Q 7.1645980070800785 0.047370000000000356 7.200125507080078 0.047370000000000356 Q 7.235653007080078 0.047370000000000356 7.235653007080078 0.15868950000000037 Q 7.235653007080078 0.28895700000000035 7.2119680070800785 0.3836970000000004 Q 7.148018507080078 0.6276525000000004 7.131439007080078 0.6939705000000004 Q 7.098280007080078 0.9497685000000003 7.098280007080078 1.2955695000000005 Q 7.098280007080078 1.3595190000000004 7.112491007080078 1.3595190000000004 Q 7.155124007080078 1.3571505000000004 7.226179007080078 1.2600420000000003 Q 7.297234007080078 1.1629335000000003 7.367104757080078 1.0077967500000005 Q 7.436975507080078 0.8526600000000004 7.452370757080078 0.8526600000000004 Q 7.467766007080078 0.8526600000000004 7.467766007080078 0.8716080000000004 Q 7.467766007080078 0.9379260000000004 7.399079507080078 1.0824045000000004 Q 7.2119680070800785 1.4803125000000004 7.081700507080078 1.4803125000000004 M 6.783269507080078 0.7129185000000005 Q 6.7193200070800785 0.7129185000000005 6.655370507080078 0.8147640000000004 Q 6.591421007080078 0.9166095000000004 6.591421007080078 1.0504297500000004 Q 6.591421007080078 1.1842500000000005 6.625764257080078 1.2695160000000003 Q 6.660107507080078 1.3547820000000004 6.712214507080078 1.3547820000000004 Q 6.818797007080078 1.3547820000000004 6.956170007080078 0.9284520000000004 Q 6.968012507080078 0.7981845000000004 6.968012507080078 0.7744995000000005 Q 6.899326007080078 0.7129185000000005 6.783269507080078 0.7129185000000005" fill="#343432" fill-rule="nonzero"></path></g><g></g></g><defs><clipPath id="SvgjsClipPath156875"><path d=" M -2.0099707625772143 -0.23381414647966103 h 1.6099707625772144 v 1.9360982929593225 h -1.6099707625772144 Z"></path></clipPath><clipPath id="SvgjsClipPath1568701eac19b5-a6c6-4289-8612-f491c5c6168a"><path d=" M -2.0099707625772143 -0.23381414647966103 L -0.3999999999999999 -0.23381414647966103 L -0.3999999999999999 1.7022841464796614 L -2.0099707625772143 1.7022841464796614 Z"></path></clipPath></defs></svg>