<svg xmlns="http://www.w3.org/2000/svg" version="1.1" xmlns:xlink="http://www.w3.org/1999/xlink" viewBox="0 0 14.064547755093344 3.698483301968344"><g transform="matrix(0.7141671984218076,0,0,0.7141671984218076,4.408482959533707,1.4716257448186412)"><rect width="15.544800343181818" height="15.544800343181818" x="-4.0984833019683435" y="-7.243650171590909" fill="#ffffff"></rect><g transform="matrix(1,0,0,1,0,0)" clip-path="url(#SvgjsClipPath119562)"><g clip-path="url(#SvgjsClipPath119557593913e3-ca64-4418-9517-92b4b4fa0a5a)"><path d=" M -0.9228773107290102 -0.5803653569399351 C -0.735301236203701 -0.5815302628273825 -0.5614732023647022 -0.4821278845236198 -0.4673472761820805 -0.3198736064280497 C -0.37322134999945833 -0.1576193283324797 -0.37322134999945833 0.04262307017686817 -0.4673472761820805 0.2048773482724381 C -0.5614732023647022 0.3671316263680081 -0.735301236203701 0.46653400467177086 -0.9228773107290102 0.4653690987843234 L -1.3483742931186946 0.4653690987843234 C -1.4021002772578888 0.4653690987843234 -1.4456537927892081 0.4218155832530043 -1.4456537927892081 0.3680895991138098 L -1.4456537927892081 -0.05740738327587436 C -1.4456983458525485 -0.3461766756357668 -1.211646601157823 -0.5803096757580953 -0.9228773107291364 -0.5803653569399351 Z M -1.271442018814588 0.3703078298276897 C -1.2276838530428438 0.3703078298276896 -1.1922108508615517 0.3348348276463974 -1.1922108508615517 0.2910766618746531 C -1.1922108508615517 0.2473184961029089 -1.2276838530428438 0.21184549392161678 -1.271442018814588 0.21184549392161667 C -1.3152001845863324 0.21184549392161667 -1.3506731867676245 0.2473184961029088 -1.3506731867676245 0.2910766618746531 C -1.3506731870807487 0.3120900729444084 -1.3423256418670546 0.33224283066120686 -1.3274669157903465 0.34710155718073965 C -1.3126081897136381 0.3619602837002722 -1.292455432245616 0.3703078295145653 -1.2714420199952243 0.3703078298276897 Z" fill="#006fbf" transform="matrix(1,0,0,1,0,0)" fill-rule="evenodd"></path></g><g clip-path="url(#SvgjsClipPath119557593913e3-ca64-4418-9517-92b4b4fa0a5a)"><path d=" M -2.0953534031508596 -0.5803653569399351 C -2.2829294776761686 -0.5815302628273825 -2.4567575115151676 -0.4821278845236198 -2.5508834376977894 -0.3198736064280497 C -2.6450093638804115 -0.1576193283324796 -2.6450093638804115 0.04262307017686828 -2.5508834376977894 0.2048773482724382 C -2.456757511515167 0.36713162636800833 -2.282929477676168 0.46653400467177086 -2.095353403150859 0.4653690987843234 L -1.6698564207611755 0.4653690987843234 C -1.6161304366219809 0.4653690987843234 -1.572576921090662 0.4218155832530043 -1.572576921090662 0.3680895991138098 L -1.572576921090662 -0.05740738327587436 C -1.572550177341022 -0.19608121408218127 -1.6276138751366753 -0.32908565495962894 -1.7256540633796416 -0.4271598796819003 C -1.8236942516226078 -0.5252341044041715 -1.9566795714165408 -0.580343965838935 -2.095353403151341 -0.5803653569399351 Z M -1.7467886950652818 0.3703078298276897 C -1.7147408451647195 0.3703159865726474 -1.6858440978219102 0.351017104631286 -1.6735742643212053 0.3214110928153314 C -1.6613044308205005 0.2918050809993771 -1.6680781347477251 0.2577230360741226 -1.6907365030734527 0.23505889932468693 C -1.7133948713991802 0.21239476257525103 -1.7474751909733817 0.20561238328026532 -1.7770843251172466 0.21787468017081868 C -1.8066934592611115 0.23013697706137215 -1.8259996962465377 0.259028810936073 -1.8259996972845556 0.2910766618746531 C -1.8259996987423157 0.33482695357338355 -1.7905389854943765 0.3702966945638123 -1.746788695138997 0.37030782982767085 Z" fill="#006fbf" transform="matrix(1,0,0,1,0,0)" fill-rule="evenodd"></path></g><g clip-path="url(#SvgjsClipPath119557593913e3-ca64-4418-9517-92b4b4fa0a5a)"><path d=" M -0.9228773107290102 1.637865356939935 C -0.735301236203701 1.639030262827383 -0.5614732023647022 1.53962788452362 -0.4673472761820805 1.37737360642805 C -0.37322134999945833 1.21511932833248 -0.37322134999945833 1.014876929823132 -0.4673472761820805 0.8526226517275618 C -0.5614732023647022 0.6903683736319918 -0.735301236203701 0.5909659953282292 -0.9228773107290102 0.5921309012156767 L -1.3483742931186946 0.5921309012156767 C -1.4021002772578888 0.5921309012156767 -1.4456537927892081 0.6356844167469958 -1.4456537927892081 0.6894104008861902 L -1.4456537927892081 1.1149073832758747 C -1.4456983458525485 1.4036766756357668 -1.211646601157823 1.637809675758095 -0.9228773107291368 1.637865356939935 Z M -1.271442018814588 0.8456343403446206 C -1.2393941678760079 0.8456343393066029 -1.2105023340013068 0.8263281023211765 -1.1982400371107533 0.7967189681773116 C -1.1859777402201999 0.7671098340334469 -1.1927601195151856 0.7330295144592452 -1.2154242562646216 0.7103711461335177 C -1.2380883930140574 0.6877127778077899 -1.2721704379393117 0.6809390738805657 -1.3017764497552664 0.6932089073812705 C -1.3313824615712206 0.7054787408819753 -1.3506813435125822 0.7343754882247845 -1.3506731867676245 0.7664233381253466 C -1.3506731874677298 0.7874348964207677 -1.3423249984530672 0.8075855814370482 -1.3274656922036598 0.8224411057573217 C -1.3126063859542525 0.8372966300775954 -1.2924535765738907 0.845639689500174 -1.2714420188869782 0.845634340344639 Z" fill="#006fbf" transform="matrix(1,0,0,1,0,0)" fill-rule="evenodd"></path></g><g clip-path="url(#SvgjsClipPath119557593913e3-ca64-4418-9517-92b4b4fa0a5a)"><path d=" M -2.0953534031508596 1.637865356939935 C -2.2829294776761686 1.639030262827383 -2.4567575115151676 1.53962788452362 -2.5508834376977894 1.37737360642805 C -2.6450093638804115 1.21511932833248 -2.6450093638804115 1.0148769298231315 -2.5508834376977894 0.8526226517275618 C -2.456757511515167 0.6903683736319918 -2.282929477676168 0.590965995328229 -2.095353403150859 0.5921309012156767 L -1.6698564207611755 0.5921309012156767 C -1.6161304366219809 0.5921309012156767 -1.572576921090662 0.6356844167469958 -1.572576921090662 0.6894104008861902 L -1.572576921090662 1.1149073832758747 C -1.572550177340942 1.2535812140818803 -1.627613875136519 1.3865856549593603 -1.7256540633794288 1.4846598796816877 C -1.8236942516223384 1.582734104404015 -1.95667957141624 1.6378439658388557 -2.09535340315104 1.637865356939935 Z M -1.7467886950652818 0.8456343403446206 C -1.7147390102572952 0.8456424965187813 -1.6858409874837887 0.8263414321038377 -1.6735723361361678 0.7967329441835641 C -1.661303684788547 0.7671244562632905 -1.668081085559748 0.7330408290127405 -1.690743635756212 0.7103782788162772 C -1.7134061859526755 0.6877157286198133 -1.7474898132032255 0.680938327848612 -1.777098301123499 0.6932069791962329 C -1.8067067890437725 0.7054756305438538 -1.8260078534587163 0.7343736533173603 -1.8259996972845556 0.7664233381253468 C -1.8259885654818193 0.8101657548964419 -1.7905311118364167 0.8456232085418623 -1.7467886950653018 0.8456343403446206 Z" fill="#006fbf" transform="matrix(1,0,0,1,0,0)" fill-rule="evenodd"></path></g></g><g><path d=" M 0.23925000000000002 1.0252499999999998 Q 0.135 0.9854999999999998 0.0765 0.9224999999999999 L 0.111 0.8654999999999999 Q 0.1665 0.9239999999999999 0.26025 0.9607499999999999 Q 0.354 0.9974999999999998 0.4575 0.9974999999999998 Q 0.6075 0.9974999999999998 0.684 0.9404999999999999 Q 0.7605000000000001 0.8834999999999998 0.7605000000000001 0.7919999999999998 Q 0.7605000000000001 0.7214999999999998 0.72 0.6794999999999999 Q 0.6795 0.6375 0.6195 0.6149999999999999 Q 0.5595 0.5924999999999998 0.4575 0.5684999999999999 Q 0.342 0.5399999999999999 0.27225 0.5129999999999999 Q 0.2025 0.4859999999999999 0.15375 0.42974999999999985 Q 0.105 0.37349999999999983 0.105 0.2789999999999999 Q 0.105 0.2024999999999999 0.1455 0.13874999999999982 Q 0.186 0.07499999999999984 0.26925 0.03749999999999987 Q 0.3525 -2.220446049250313e-16 0.47700000000000004 -2.220446049250313e-16 Q 0.5640000000000001 -2.220446049250313e-16 0.648 0.025499999999999856 Q 0.732 0.050999999999999934 0.7935 0.09449999999999992 L 0.765 0.15599999999999992 Q 0.7020000000000001 0.11249999999999982 0.62625 0.08999999999999986 Q 0.5505 0.0674999999999999 0.47700000000000004 0.0674999999999999 Q 0.3315 0.0674999999999999 0.2565 0.1259999999999999 Q 0.1815 0.1844999999999999 0.1815 0.27749999999999986 Q 0.1815 0.34799999999999986 0.222 0.3899999999999999 Q 0.2625 0.43199999999999983 0.3225 0.4544999999999999 Q 0.3825 0.47699999999999987 0.486 0.5024999999999998 Q 0.6015 0.5309999999999999 0.6705 0.5579999999999998 Q 0.7395 0.5849999999999999 0.78825 0.6397499999999998 Q 0.837 0.6944999999999999 0.837 0.7874999999999999 Q 0.837 0.8639999999999999 0.7957500000000001 0.9269999999999998 Q 0.7545000000000001 0.9899999999999999 0.669 1.0274999999999999 Q 0.5835 1.065 0.459 1.065 Q 0.3435 1.065 0.23925000000000002 1.0252499999999998 M 1.26301318359375 0.9952499999999999 Q 1.13851318359375 0.9254999999999999 1.06726318359375 0.8039999999999998 Q 0.99601318359375 0.6824999999999999 0.99601318359375 0.5324999999999999 Q 0.99601318359375 0.38249999999999984 1.06726318359375 0.2609999999999999 Q 1.13851318359375 0.13949999999999985 1.26301318359375 0.06974999999999987 Q 1.38751318359375 -2.220446049250313e-16 1.54201318359375 -2.220446049250313e-16 Q 1.69651318359375 -2.220446049250313e-16 1.82101318359375 0.06899999999999984 Q 1.94551318359375 0.1379999999999999 2.01676318359375 0.25949999999999984 Q 2.08801318359375 0.3809999999999999 2.08801318359375 0.5324999999999999 Q 2.08801318359375 0.6839999999999999 2.01676318359375 0.8054999999999999 Q 1.94551318359375 0.9269999999999998 1.82101318359375 0.9959999999999999 Q 1.69651318359375 1.065 1.54201318359375 1.065 Q 1.38751318359375 1.065 1.26301318359375 0.9952499999999999 M 1.78051318359375 0.9344999999999999 Q 1.88701318359375 0.8744999999999998 1.94851318359375 0.7687499999999998 Q 2.01001318359375 0.6629999999999998 2.01001318359375 0.5324999999999999 Q 2.01001318359375 0.4019999999999999 1.94851318359375 0.2962499999999999 Q 1.88701318359375 0.1904999999999999 1.78051318359375 0.13049999999999984 Q 1.67401318359375 0.0704999999999999 1.54201318359375 0.0704999999999999 Q 1.41001318359375 0.0704999999999999 1.30276318359375 0.13049999999999984 Q 1.19551318359375 0.1904999999999999 1.13401318359375 0.2962499999999999 Q 1.07251318359375 0.4019999999999999 1.07251318359375 0.5324999999999999 Q 1.07251318359375 0.6629999999999998 1.13401318359375 0.7687499999999998 Q 1.19551318359375 0.8744999999999998 1.30276318359375 0.9344999999999999 Q 1.41001318359375 0.9944999999999999 1.54201318359375 0.9944999999999999 Q 1.67401318359375 0.9944999999999999 1.78051318359375 0.9344999999999999 M 2.3535322265625 0.00749999999999984 L 2.4300322265625 0.00749999999999984 L 2.4300322265625 1.0574999999999999 L 2.3535322265625 1.0574999999999999 L 2.3535322265625 0.00749999999999984 M 3.6510065917968753 0.00749999999999984 L 3.6510065917968753 1.0574999999999999 L 3.588006591796875 1.0574999999999999 L 2.872506591796875 0.14549999999999985 L 2.872506591796875 1.0574999999999999 L 2.796006591796875 1.0574999999999999 L 2.796006591796875 0.00749999999999984 L 2.860506591796875 0.00749999999999984 L 3.574506591796875 0.9194999999999999 L 3.574506591796875 0.00749999999999984 L 3.6510065917968753 0.00749999999999984 M 5.198323974609375 0.6044999999999998 Q 5.257573974609375 0.6719999999999999 5.257573974609375 0.7799999999999998 Q 5.257573974609375 0.9134999999999999 5.160073974609375 0.9854999999999998 Q 5.062573974609375 1.0574999999999999 4.870573974609375 1.0574999999999999 L 4.402573974609375 1.0574999999999999 L 4.402573974609375 0.00749999999999984 L 4.840573974609375 0.00749999999999984 Q 5.011573974609375 0.00749999999999984 5.106823974609375 0.07724999999999982 Q 5.202073974609375 0.1469999999999999 5.202073974609375 0.2759999999999999 Q 5.202073974609375 0.3659999999999999 5.154823974609375 0.4274999999999999 Q 5.107573974609375 0.4889999999999999 5.026573974609375 0.5159999999999999 Q 5.139073974609375 0.5369999999999999 5.198323974609375 0.6044999999999998 M 4.479073974609375 0.0734999999999999 L 4.479073974609375 0.4919999999999999 L 4.837573974609375 0.4919999999999999 Q 4.975573974609375 0.4919999999999999 5.049823974609375 0.43874999999999986 Q 5.124073974609375 0.38549999999999984 5.124073974609375 0.2819999999999999 Q 5.124073974609375 0.17999999999999983 5.049823974609375 0.12674999999999992 Q 4.975573974609375 0.0734999999999999 4.837573974609375 0.0734999999999999 L 4.479073974609375 0.0734999999999999 M 5.102323974609375 0.9382499999999999 Q 5.181073974609375 0.8849999999999999 5.181073974609375 0.7739999999999998 Q 5.181073974609375 0.6629999999999998 5.102323974609375 0.6104999999999998 Q 5.023573974609375 0.5579999999999998 4.870573974609375 0.5579999999999998 L 4.479073974609375 0.5579999999999998 L 4.479073974609375 0.9914999999999998 L 4.870573974609375 0.9914999999999998 Q 5.023573974609375 0.9914999999999998 5.102323974609375 0.9382499999999999 M 5.69709521484375 0.9952499999999999 Q 5.57259521484375 0.9254999999999999 5.50134521484375 0.8039999999999998 Q 5.43009521484375 0.6824999999999999 5.43009521484375 0.5324999999999999 Q 5.43009521484375 0.38249999999999984 5.50134521484375 0.2609999999999999 Q 5.57259521484375 0.13949999999999985 5.69709521484375 0.06974999999999987 Q 5.82159521484375 -2.220446049250313e-16 5.97609521484375 -2.220446049250313e-16 Q 6.13059521484375 -2.220446049250313e-16 6.25509521484375 0.06899999999999984 Q 6.37959521484375 0.1379999999999999 6.45084521484375 0.25949999999999984 Q 6.52209521484375 0.3809999999999999 6.52209521484375 0.5324999999999999 Q 6.52209521484375 0.6839999999999999 6.45084521484375 0.8054999999999999 Q 6.37959521484375 0.9269999999999998 6.25509521484375 0.9959999999999999 Q 6.13059521484375 1.065 5.97609521484375 1.065 Q 5.82159521484375 1.065 5.69709521484375 0.9952499999999999 M 6.21459521484375 0.9344999999999999 Q 6.32109521484375 0.8744999999999998 6.38259521484375 0.7687499999999998 Q 6.44409521484375 0.6629999999999998 6.44409521484375 0.5324999999999999 Q 6.44409521484375 0.4019999999999999 6.38259521484375 0.2962499999999999 Q 6.32109521484375 0.1904999999999999 6.21459521484375 0.13049999999999984 Q 6.10809521484375 0.0704999999999999 5.97609521484375 0.0704999999999999 Q 5.84409521484375 0.0704999999999999 5.73684521484375 0.13049999999999984 Q 5.62959521484375 0.1904999999999999 5.56809521484375 0.2962499999999999 Q 5.50659521484375 0.4019999999999999 5.50659521484375 0.5324999999999999 Q 5.50659521484375 0.6629999999999998 5.56809521484375 0.7687499999999998 Q 5.62959521484375 0.8744999999999998 5.73684521484375 0.9344999999999999 Q 5.84409521484375 0.9944999999999999 5.97609521484375 0.9944999999999999 Q 6.10809521484375 0.9944999999999999 6.21459521484375 0.9344999999999999 M 7.422099609375 0.7619999999999999 L 6.813099609375 0.7619999999999999 L 6.679599609375 1.0574999999999999 L 6.597099609375 1.0574999999999999 L 7.080099609375 0.00749999999999984 L 7.156599609375 0.00749999999999984 L 7.639599609375 1.0574999999999999 L 7.557099609375 1.0574999999999999 L 7.422099609375 0.7619999999999999 M 7.393599609375 0.6974999999999999 L 7.1175996093750005 0.09149999999999991 L 6.843099609375 0.6974999999999999 L 7.393599609375 0.6974999999999999 M 8.559125244140626 1.0574999999999999 L 8.308625244140625 0.7064999999999999 Q 8.253125244140625 0.7139999999999999 8.206625244140625 0.7139999999999999 L 7.906625244140625 0.7139999999999999 L 7.906625244140625 1.0574999999999999 L 7.830125244140625 1.0574999999999999 L 7.830125244140625 0.00749999999999984 L 8.206625244140625 0.00749999999999984 Q 8.404625244140625 0.00749999999999984 8.517125244140624 0.10124999999999984 Q 8.629625244140625 0.19499999999999984 8.629625244140625 0.3614999999999998 Q 8.629625244140625 0.4859999999999999 8.565875244140624 0.5707499999999999 Q 8.502125244140625 0.6554999999999999 8.383625244140624 0.69 L 8.646125244140626 1.0574999999999999 L 8.559125244140626 1.0574999999999999 M 8.206625244140625 0.6464999999999999 Q 8.374625244140624 0.6464999999999999 8.463125244140626 0.5722499999999999 Q 8.551625244140626 0.4979999999999999 8.551625244140626 0.3614999999999998 Q 8.551625244140626 0.22499999999999987 8.463125244140626 0.15074999999999983 Q 8.374625244140624 0.0764999999999999 8.206625244140625 0.0764999999999999 L 7.906625244140625 0.0764999999999999 L 7.906625244140625 0.6464999999999999 L 8.206625244140625 0.6464999999999999 M 8.910081298828125 0.00749999999999984 L 9.325581298828125 0.00749999999999984 Q 9.489081298828125 0.00749999999999984 9.615831298828125 0.07499999999999984 Q 9.742581298828124 0.14249999999999985 9.813081298828125 0.2617499999999998 Q 9.883581298828124 0.3809999999999999 9.883581298828124 0.5324999999999999 Q 9.883581298828124 0.6839999999999999 9.813081298828125 0.8032499999999998 Q 9.742581298828124 0.9224999999999999 9.615831298828125 0.9899999999999999 Q 9.489081298828125 1.0574999999999999 9.325581298828125 1.0574999999999999 L 8.910081298828125 1.0574999999999999 L 8.910081298828125 0.00749999999999984 M 9.319581298828124 0.9884999999999999 Q 9.465081298828125 0.9884999999999999 9.576081298828125 0.9307499999999999 Q 9.687081298828126 0.8729999999999999 9.747081298828125 0.7694999999999999 Q 9.807081298828125 0.6659999999999999 9.807081298828125 0.5324999999999999 Q 9.807081298828125 0.3989999999999999 9.747081298828125 0.2954999999999999 Q 9.687081298828126 0.19199999999999984 9.576081298828125 0.13424999999999987 Q 9.465081298828125 0.0764999999999999 9.319581298828124 0.0764999999999999 L 8.986581298828124 0.0764999999999999 L 8.986581298828124 0.9884999999999999 L 9.319581298828124 0.9884999999999999" fill="#0094ff" fill-rule="nonzero"></path></g><g></g></g><defs><clipPath id="SvgjsClipPath119562"><path d=" M -2.61823071387987 -0.5803653569399351 h 2.21823071387987 v 2.21823071387987 h -2.21823071387987 Z"></path></clipPath><clipPath id="SvgjsClipPath119557593913e3-ca64-4418-9517-92b4b4fa0a5a"><path d=" M -2.61823071387987 -0.5803653569399351 L -0.3999999999999999 -0.5803653569399351 L -0.3999999999999999 1.637865356939935 L -2.61823071387987 1.637865356939935 Z"></path></clipPath></defs></svg>