<svg xmlns="http://www.w3.org/2000/svg" version="1.1" xmlns:xlink="http://www.w3.org/1999/xlink" viewBox="0 0 13.14935954189947 3.6324467001025944"><g transform="matrix(0.7220228268707296,0,0,0.7220228268707296,2.332479529577439,1.431746194742634)"><rect width="14.547843395399642" height="14.547843395399642" x="-1.3984838535001725" y="-6.741421697699821" fill="#158cba"></rect><g transform="matrix(1,0,0,1,0,0)" clip-path="url(#SvgjsClipPath3963)"><g clip-path="url(#SvgjsClipPath39589b0bf44e-67b3-490a-b4e3-cbdf78207b5d)"><path d=" M 11.224290027948806 -0.5844814233012113 C 11.413196429243797 -0.5856545909325415 11.588257286017825 -0.48554723122236904 11.683050771960607 -0.3221422135658374 C 11.77784425790339 -0.1587371959093059 11.77784425790339 0.04292536145471815 11.683050771960607 0.20633037911124963 C 11.588257286017825 0.3697353967677811 11.413196429243797 0.4698427564779536 11.224290027948806 0.4686695888466236 L 10.795775336464159 0.4686695888466236 C 10.74166831697646 0.4686695888466236 10.697805911264068 0.42480718313423116 10.697805911264068 0.3707001636465317 L 10.697805911264068 -0.05781452783811469 C 10.697761042221554 -0.3486318293636802 10.933472728368015 -0.5844253472173727 11.224290027948678 -0.5844814233012113 Z M 10.87325322973496 0.3729341264931343 C 10.917321737107923 0.37293412649313407 10.953046320864969 0.33720954273608805 10.953046320864969 0.29314103536312575 C 10.953046320864969 0.24907252799016344 10.917321737107923 0.21334794423311754 10.87325322973496 0.21334794423311743 C 10.829184722361997 0.21334794423311743 10.793460138604953 0.24907252799016333 10.793460138604953 0.29314103536312563 C 10.793460138289607 0.3143034777170637 10.801866885951625 0.3345991627935557 10.81683099306434 0.3495632703522341 C 10.831795100177052 0.3645273779109124 10.852090785003004 0.3729341261777891 10.873253228545952 0.3729341264931343 Z" fill="#222222" transform="matrix(1,0,0,1,0,0)" fill-rule="evenodd"></path></g><g clip-path="url(#SvgjsClipPath39589b0bf44e-67b3-490a-b4e3-cbdf78207b5d)"><path d=" M 10.043498502247369 -0.5844814233012113 C 9.854592100952376 -0.5856545909325415 9.67953124417835 -0.48554723122236904 9.584737758235566 -0.3221422135658374 C 9.489944272292783 -0.1587371959093058 9.489944272292783 0.04292536145471826 9.584737758235567 0.20633037911124974 C 9.67953124417835 0.36973539676778133 9.854592100952376 0.4698427564779536 10.043498502247369 0.4686695888466236 L 10.472013193732014 0.4686695888466236 C 10.526120213219714 0.4686695888466236 10.569982618932107 0.42480718313423116 10.569982618932107 0.3707001636465317 L 10.569982618932107 -0.05781452783811469 C 10.57000955235373 -0.19747186099056563 10.514555331878674 -0.3314195957749456 10.415819823151715 -0.4301893823746798 C 10.317084314424756 -0.528959168974414 10.183155836334413 -0.5844598804902751 10.043498502246884 -0.5844814233012113 Z M 10.394535300461213 0.3729341264931343 C 10.426810440077382 0.37294234108734703 10.455912128890708 0.35350658764285525 10.468268982487162 0.323690604111894 C 10.480625836083616 0.29387462058093283 10.473804091703007 0.25955085902500286 10.45098502572958 0.23672598371706044 C 10.428165959756152 0.21390110840911802 10.393843935787807 0.2070706271333167 10.364024807784766 0.21941989066848389 C 10.334205679781725 0.2317691542036513 10.314762519129735 0.26086589470157695 10.314762518084356 0.29314103536312575 C 10.314762516616256 0.33720161281858474 10.350474724284394 0.37292291225575414 10.394535300386975 0.3729341264931152 Z" fill="#222222" transform="matrix(1,0,0,1,0,0)" fill-rule="evenodd"></path></g><g clip-path="url(#SvgjsClipPath39589b0bf44e-67b3-490a-b4e3-cbdf78207b5d)"><path d=" M 11.224290027948806 1.6494814233012112 C 11.413196429243797 1.6506545909325414 11.588257286017825 1.5505472312223691 11.683050771960607 1.3871422135658373 C 11.77784425790339 1.223737195909306 11.77784425790339 1.022074638545282 11.683050771960607 0.8586696208887502 C 11.588257286017825 0.6952646032322186 11.413196429243797 0.5951572435220464 11.224290027948806 0.5963304111533766 L 10.795775336464159 0.5963304111533766 C 10.74166831697646 0.5963304111533766 10.697805911264068 0.6401928168657688 10.697805911264068 0.6942998363534681 L 10.697805911264068 1.122814527838115 C 10.697761042221554 1.41363182936368 10.933472728368015 1.6494253472173726 11.224290027948678 1.6494814233012112 Z M 10.87325322973496 0.8516317470137315 C 10.90552837039651 0.8516317459683517 10.934625110894435 0.8321885853163621 10.946974374429603 0.8023694573133208 C 10.95932363796477 0.7725503293102797 10.952493156688968 0.7382283053419348 10.929668281381026 0.7154092393685071 C 10.906843406073083 0.6925901733950793 10.872519644517155 0.6857684290144704 10.842703660986192 0.6981252826109247 C 10.812887677455231 0.7104821362073793 10.79345192401074 0.7395838250207049 10.793460138604953 0.771858964636874 C 10.793460137899881 0.7930195410762341 10.801867533928833 0.8133131387522045 10.816832225328945 0.8282740214009906 C 10.831796916729058 0.8432349040497767 10.852092653835522 0.8516371341065582 10.873253229662057 0.8516317470137499 Z" fill="#222222" transform="matrix(1,0,0,1,0,0)" fill-rule="evenodd"></path></g><g clip-path="url(#SvgjsClipPath39589b0bf44e-67b3-490a-b4e3-cbdf78207b5d)"><path d=" M 10.043498502247369 1.6494814233012112 C 9.854592100952376 1.6506545909325414 9.67953124417835 1.5505472312223691 9.584737758235566 1.3871422135658373 C 9.489944272292783 1.223737195909306 9.489944272292783 1.0220746385452815 9.584737758235567 0.8586696208887502 C 9.67953124417835 0.6952646032322184 9.854592100952376 0.5951572435220461 10.043498502247369 0.5963304111533766 L 10.472013193732014 0.5963304111533766 C 10.526120213219714 0.5963304111533766 10.569982618932107 0.6401928168657688 10.569982618932107 0.6942998363534681 L 10.569982618932107 1.122814527838115 C 10.57000955235381 1.2624718609902623 10.514555331878832 1.3964195957746748 10.41581982315193 1.4951893823744657 C 10.317084314425028 1.5939591689742563 10.183155836334716 1.6494598804901948 10.043498502247186 1.6494814233012112 Z M 10.394535300461213 0.8516317470137315 C 10.426812287998334 0.8516399610330988 10.455915261287965 0.8322020096364889 10.468270924347271 0.802383532440185 C 10.480626587406576 0.7725650552438811 10.47380111996324 0.7382397001404905 10.450977842460418 0.7154164226376692 C 10.428154564957596 0.6925931451348474 10.393829209854205 0.6857676776915099 10.364010732657901 0.698123340750816 C 10.334192255461598 0.710479003810122 10.314754304064987 0.7395819770997528 10.314762518084356 0.771858964636874 C 10.314773728836046 0.8159116113141472 10.3504826537839 0.8516205362620174 10.394535300461191 0.8516317470137315 Z" fill="#222222" transform="matrix(1,0,0,1,0,0)" fill-rule="evenodd"></path></g></g><g><path d=" M 0.489 1.0799999999999996 Q 0.34500000000000003 1.0799999999999996 0.24825 1.0379999999999998 Q 0.1515 0.9959999999999998 0.10200000000000001 0.9284999999999997 Q 0.0525 0.8609999999999998 0.0495 0.7844999999999998 Q 0.0495 0.7724999999999997 0.0585 0.7627499999999997 Q 0.0675 0.7529999999999997 0.081 0.7529999999999997 L 0.2415 0.7529999999999997 Q 0.261 0.7529999999999997 0.2715 0.7612499999999998 Q 0.28200000000000003 0.7694999999999997 0.291 0.7814999999999996 Q 0.3015 0.8069999999999997 0.32475 0.8309999999999997 Q 0.34800000000000003 0.8549999999999998 0.3885 0.8707499999999997 Q 0.429 0.8864999999999997 0.489 0.8864999999999997 Q 0.5865 0.8864999999999997 0.63525 0.8549999999999998 Q 0.684 0.8234999999999997 0.684 0.7694999999999997 Q 0.684 0.7304999999999997 0.6577500000000001 0.7064999999999997 Q 0.6315000000000001 0.6824999999999997 0.57525 0.6629999999999997 Q 0.519 0.6434999999999997 0.426 0.6209999999999998 Q 0.3135 0.5969999999999998 0.23475000000000001 0.5587499999999997 Q 0.156 0.5204999999999997 0.11625 0.45974999999999966 Q 0.0765 0.3989999999999997 0.0765 0.3089999999999997 Q 0.0765 0.21899999999999975 0.126 0.14924999999999966 Q 0.17550000000000002 0.07949999999999968 0.2655 0.03974999999999973 Q 0.3555 -2.220446049250313e-16 0.48 -2.220446049250313e-16 Q 0.5805 -2.220446049250313e-16 0.6577500000000001 0.02699999999999969 Q 0.735 0.053999999999999604 0.7867500000000001 0.0974999999999997 Q 0.8385 0.14099999999999968 0.8655 0.19049999999999967 Q 0.8925000000000001 0.23999999999999966 0.894 0.28649999999999975 Q 0.894 0.29849999999999965 0.885 0.3082499999999997 Q 0.876 0.3179999999999997 0.8625 0.3179999999999997 L 0.6945 0.3179999999999997 Q 0.6795 0.3179999999999997 0.6675 0.3119999999999997 Q 0.6555 0.3059999999999997 0.648 0.2909999999999997 Q 0.639 0.25199999999999967 0.59475 0.22274999999999967 Q 0.5505 0.19349999999999967 0.48 0.19349999999999967 Q 0.40650000000000003 0.19349999999999967 0.36375 0.2204999999999997 Q 0.321 0.24749999999999972 0.321 0.3029999999999997 Q 0.321 0.33899999999999975 0.34275 0.3637499999999997 Q 0.3645 0.38849999999999973 0.41625 0.40724999999999967 Q 0.468 0.4259999999999997 0.5535 0.4484999999999997 Q 0.6855 0.4754999999999997 0.768 0.5129999999999997 Q 0.8505 0.5504999999999998 0.8895000000000001 0.6097499999999998 Q 0.9285 0.6689999999999997 0.9285 0.7589999999999997 Q 0.9285 0.8594999999999997 0.87225 0.9314999999999998 Q 0.8160000000000001 1.0034999999999998 0.71775 1.0417499999999997 Q 0.6195 1.0799999999999996 0.489 1.0799999999999996 M 1.50596630859375 1.0799999999999996 Q 1.36946630859375 1.0799999999999996 1.27046630859375 1.0349999999999997 Q 1.17146630859375 0.9899999999999998 1.11596630859375 0.8992499999999997 Q 1.06046630859375 0.8084999999999998 1.05596630859375 0.6704999999999997 Q 1.05446630859375 0.6059999999999997 1.05446630859375 0.5422499999999997 Q 1.05446630859375 0.4784999999999997 1.05596630859375 0.41249999999999976 Q 1.06046630859375 0.27749999999999975 1.11671630859375 0.1852499999999997 Q 1.17296630859375 0.09299999999999975 1.27271630859375 0.046499999999999764 Q 1.37246630859375 -2.220446049250313e-16 1.50596630859375 -2.220446049250313e-16 Q 1.6379663085937501 -2.220446049250313e-16 1.73771630859375 0.046499999999999764 Q 1.8374663085937502 0.09299999999999975 1.89446630859375 0.1852499999999997 Q 1.95146630859375 0.27749999999999975 1.9544663085937501 0.41249999999999976 Q 1.95746630859375 0.4784999999999997 1.95746630859375 0.5422499999999997 Q 1.95746630859375 0.6059999999999997 1.9544663085937501 0.6704999999999997 Q 1.94996630859375 0.8084999999999998 1.89446630859375 0.8992499999999997 Q 1.83896630859375 0.9899999999999998 1.73996630859375 1.0349999999999997 Q 1.64096630859375 1.0799999999999996 1.50596630859375 1.0799999999999996 M 1.50596630859375 0.8864999999999997 Q 1.59296630859375 0.8864999999999997 1.6492163085937501 0.8332499999999997 Q 1.70546630859375 0.7799999999999997 1.7084663085937501 0.6629999999999997 Q 1.71146630859375 0.5969999999999998 1.71146630859375 0.5392499999999997 Q 1.71146630859375 0.4814999999999997 1.7084663085937501 0.4169999999999997 Q 1.70696630859375 0.33899999999999975 1.67996630859375 0.28949999999999976 Q 1.65296630859375 0.23999999999999966 1.60871630859375 0.21674999999999967 Q 1.56446630859375 0.19349999999999967 1.50596630859375 0.19349999999999967 Q 1.44746630859375 0.19349999999999967 1.40246630859375 0.21674999999999967 Q 1.35746630859375 0.23999999999999966 1.33121630859375 0.28949999999999976 Q 1.30496630859375 0.33899999999999975 1.30196630859375 0.4169999999999997 Q 1.30046630859375 0.4814999999999997 1.30046630859375 0.5392499999999997 Q 1.30046630859375 0.5969999999999998 1.30196630859375 0.6629999999999997 Q 1.30646630859375 0.7799999999999997 1.36196630859375 0.8332499999999997 Q 1.41746630859375 0.8864999999999997 1.50596630859375 0.8864999999999997 M 2.180970703125 1.0649999999999997 Q 2.164470703125 1.0649999999999997 2.153970703125 1.0544999999999998 Q 2.143470703125 1.0439999999999998 2.143470703125 1.0274999999999996 L 2.143470703125 0.05249999999999977 Q 2.143470703125 0.03599999999999981 2.153970703125 0.025499999999999634 Q 2.164470703125 0.01499999999999968 2.180970703125 0.01499999999999968 L 2.350470703125 0.01499999999999968 Q 2.3669707031250002 0.01499999999999968 2.377470703125 0.025499999999999634 Q 2.387970703125 0.03599999999999981 2.387970703125 0.05249999999999977 L 2.387970703125 1.0274999999999996 Q 2.387970703125 1.0439999999999998 2.377470703125 1.0544999999999998 Q 2.3669707031250002 1.0649999999999997 2.350470703125 1.0649999999999997 L 2.180970703125 1.0649999999999997 M 2.647431884765625 1.0649999999999997 Q 2.630931884765625 1.0649999999999997 2.620431884765625 1.0544999999999998 Q 2.609931884765625 1.0439999999999998 2.609931884765625 1.0274999999999996 L 2.609931884765625 0.05249999999999977 Q 2.609931884765625 0.03599999999999981 2.620431884765625 0.025499999999999634 Q 2.630931884765625 0.01499999999999968 2.647431884765625 0.01499999999999968 L 2.783931884765625 0.01499999999999968 Q 2.806431884765625 0.01499999999999968 2.816931884765625 0.025499999999999634 Q 2.827431884765625 0.03599999999999981 2.830431884765625 0.04199999999999959 L 3.230931884765625 0.6674999999999998 L 3.230931884765625 0.05249999999999977 Q 3.230931884765625 0.03599999999999981 3.241431884765625 0.025499999999999634 Q 3.251931884765625 0.01499999999999968 3.266931884765625 0.01499999999999968 L 3.4199318847656253 0.01499999999999968 Q 3.436431884765625 0.01499999999999968 3.446931884765625 0.025499999999999634 Q 3.457431884765625 0.03599999999999981 3.457431884765625 0.05249999999999977 L 3.457431884765625 1.0274999999999996 Q 3.457431884765625 1.0424999999999998 3.446931884765625 1.0537499999999997 Q 3.436431884765625 1.0649999999999997 3.4199318847656253 1.0649999999999997 L 3.281931884765625 1.0649999999999997 Q 3.259431884765625 1.0649999999999997 3.249681884765625 1.0537499999999997 Q 3.239931884765625 1.0424999999999998 3.235431884765625 1.0379999999999998 L 2.836431884765625 0.4319999999999997 L 2.836431884765625 1.0274999999999996 Q 2.836431884765625 1.0439999999999998 2.825931884765625 1.0544999999999998 Q 2.815431884765625 1.0649999999999997 2.798931884765625 1.0649999999999997 L 2.647431884765625 1.0649999999999997 M 4.04846337890625 1.0649999999999997 Q 4.03196337890625 1.0649999999999997 4.02146337890625 1.0544999999999998 Q 4.01096337890625 1.0439999999999998 4.01096337890625 1.0274999999999996 L 4.01096337890625 0.05249999999999977 Q 4.01096337890625 0.03599999999999981 4.02146337890625 0.025499999999999634 Q 4.03196337890625 0.01499999999999968 4.04846337890625 0.01499999999999968 L 4.49396337890625 0.01499999999999968 Q 4.61846337890625 0.01499999999999968 4.69796337890625 0.05099999999999971 Q 4.77746337890625 0.08699999999999974 4.81571337890625 0.1529999999999997 Q 4.85396337890625 0.21899999999999975 4.85396337890625 0.30749999999999966 Q 4.85396337890625 0.36299999999999966 4.83371337890625 0.4049999999999997 Q 4.81346337890625 0.44699999999999973 4.78421337890625 0.47399999999999975 Q 4.75496337890625 0.5009999999999997 4.72796337890625 0.5144999999999997 Q 4.78646337890625 0.5414999999999998 4.83071337890625 0.6037499999999998 Q 4.87496337890625 0.6659999999999997 4.87496337890625 0.7514999999999997 Q 4.87496337890625 0.8459999999999998 4.83296337890625 0.9164999999999998 Q 4.79096337890625 0.9869999999999998 4.70846337890625 1.0259999999999998 Q 4.62596337890625 1.0649999999999997 4.50746337890625 1.0649999999999997 L 4.04846337890625 1.0649999999999997 M 4.24946337890625 0.8894999999999997 L 4.47896337890625 0.8894999999999997 Q 4.55246337890625 0.8894999999999997 4.58996337890625 0.8482499999999997 Q 4.62746337890625 0.8069999999999997 4.62746337890625 0.7499999999999998 Q 4.62746337890625 0.6914999999999998 4.58921337890625 0.6517499999999997 Q 4.55096337890625 0.6119999999999997 4.47896337890625 0.6119999999999997 L 4.24946337890625 0.6119999999999997 L 4.24946337890625 0.8894999999999997 M 4.24946337890625 0.43949999999999967 L 4.46546337890625 0.43949999999999967 Q 4.53596337890625 0.43949999999999967 4.57121337890625 0.40424999999999967 Q 4.60646337890625 0.36899999999999966 4.60646337890625 0.31349999999999967 Q 4.60646337890625 0.2579999999999997 4.57121337890625 0.22424999999999973 Q 4.53596337890625 0.19049999999999967 4.46546337890625 0.19049999999999967 L 4.24946337890625 0.19049999999999967 L 4.24946337890625 0.43949999999999967 M 5.4704743652343755 1.0799999999999996 Q 5.333974365234375 1.0799999999999996 5.234974365234375 1.0349999999999997 Q 5.135974365234375 0.9899999999999998 5.080474365234375 0.8992499999999997 Q 5.024974365234375 0.8084999999999998 5.020474365234375 0.6704999999999997 Q 5.018974365234375 0.6059999999999997 5.018974365234375 0.5422499999999997 Q 5.018974365234375 0.4784999999999997 5.020474365234375 0.41249999999999976 Q 5.024974365234375 0.27749999999999975 5.081224365234375 0.1852499999999997 Q 5.137474365234375 0.09299999999999975 5.237224365234375 0.046499999999999764 Q 5.336974365234375 -2.220446049250313e-16 5.4704743652343755 -2.220446049250313e-16 Q 5.602474365234375 -2.220446049250313e-16 5.702224365234375 0.046499999999999764 Q 5.801974365234375 0.09299999999999975 5.858974365234375 0.1852499999999997 Q 5.915974365234375 0.27749999999999975 5.918974365234375 0.41249999999999976 Q 5.921974365234375 0.4784999999999997 5.921974365234375 0.5422499999999997 Q 5.921974365234375 0.6059999999999997 5.918974365234375 0.6704999999999997 Q 5.9144743652343745 0.8084999999999998 5.858974365234375 0.8992499999999997 Q 5.803474365234375 0.9899999999999998 5.7044743652343755 1.0349999999999997 Q 5.605474365234375 1.0799999999999996 5.4704743652343755 1.0799999999999996 M 5.4704743652343755 0.8864999999999997 Q 5.557474365234375 0.8864999999999997 5.613724365234375 0.8332499999999997 Q 5.669974365234375 0.7799999999999997 5.672974365234375 0.6629999999999997 Q 5.675974365234375 0.5969999999999998 5.675974365234375 0.5392499999999997 Q 5.675974365234375 0.4814999999999997 5.672974365234375 0.4169999999999997 Q 5.671474365234375 0.33899999999999975 5.644474365234375 0.28949999999999976 Q 5.617474365234375 0.23999999999999966 5.573224365234375 0.21674999999999967 Q 5.528974365234375 0.19349999999999967 5.4704743652343755 0.19349999999999967 Q 5.411974365234375 0.19349999999999967 5.366974365234375 0.21674999999999967 Q 5.321974365234375 0.23999999999999966 5.295724365234375 0.28949999999999976 Q 5.269474365234375 0.33899999999999975 5.266474365234375 0.4169999999999997 Q 5.264974365234375 0.4814999999999997 5.264974365234375 0.5392499999999997 Q 5.264974365234375 0.5969999999999998 5.266474365234375 0.6629999999999997 Q 5.270974365234375 0.7799999999999997 5.326474365234375 0.8332499999999997 Q 5.381974365234375 0.8864999999999997 5.4704743652343755 0.8864999999999997 M 6.023956787109375 1.0649999999999997 Q 6.010456787109375 1.0649999999999997 6.001456787109375 1.0552499999999998 Q 5.992456787109375 1.0454999999999997 5.992456787109375 1.0334999999999996 Q 5.992456787109375 1.0259999999999998 5.993956787109375 1.0199999999999998 L 6.350956787109375 0.05549999999999966 Q 6.355456787109375 0.0389999999999997 6.368956787109375 0.02699999999999969 Q 6.382456787109375 0.01499999999999968 6.406456787109375 0.01499999999999968 L 6.598456787109375 0.01499999999999968 Q 6.622456787109375 0.01499999999999968 6.635956787109375 0.02699999999999969 Q 6.649456787109375 0.0389999999999997 6.653956787109375 0.05549999999999966 L 7.010956787109375 1.0199999999999998 Q 7.012456787109375 1.0259999999999998 7.012456787109375 1.0334999999999996 Q 7.012456787109375 1.0454999999999997 7.003456787109375 1.0552499999999998 Q 6.994456787109375 1.0649999999999997 6.980956787109375 1.0649999999999997 L 6.824956787109375 1.0649999999999997 Q 6.802456787109375 1.0649999999999997 6.791956787109375 1.0544999999999998 Q 6.781456787109375 1.0439999999999998 6.778456787109375 1.0349999999999997 L 6.713956787109375 0.8669999999999998 L 6.290956787109375 0.8669999999999998 L 6.226456787109375 1.0349999999999997 Q 6.223456787109375 1.0439999999999998 6.212956787109375 1.0544999999999998 Q 6.202456787109375 1.0649999999999997 6.179956787109375 1.0649999999999997 L 6.023956787109375 1.0649999999999997 M 6.346456787109375 0.6734999999999998 L 6.656956787109375 0.6734999999999998 L 6.5024567871093755 0.24149999999999971 L 6.346456787109375 0.6734999999999998 M 7.178926025390625 1.0649999999999997 Q 7.162426025390625 1.0649999999999997 7.151926025390625 1.0544999999999998 Q 7.141426025390625 1.0439999999999998 7.141426025390625 1.0274999999999996 L 7.141426025390625 0.05249999999999977 Q 7.141426025390625 0.03599999999999981 7.151926025390625 0.025499999999999634 Q 7.162426025390625 0.01499999999999968 7.178926025390625 0.01499999999999968 L 7.576426025390625 0.01499999999999968 Q 7.763926025390625 0.01499999999999968 7.871926025390625 0.10124999999999973 Q 7.9799260253906255 0.18749999999999967 7.9799260253906255 0.3494999999999997 Q 7.9799260253906255 0.45899999999999974 7.927426025390625 0.5324999999999998 Q 7.874926025390625 0.6059999999999997 7.786426025390625 0.6419999999999997 L 7.997926025390625 1.0169999999999997 Q 8.002426025390625 1.0259999999999998 8.002426025390625 1.0334999999999996 Q 8.002426025390625 1.0454999999999997 7.993426025390625 1.0552499999999998 Q 7.984426025390625 1.0649999999999997 7.970926025390625 1.0649999999999997 L 7.804426025390625 1.0649999999999997 Q 7.777426025390625 1.0649999999999997 7.763926025390625 1.0507499999999996 Q 7.750426025390625 1.0364999999999998 7.744426025390625 1.0244999999999997 L 7.561426025390625 0.6809999999999997 L 7.379926025390625 0.6809999999999997 L 7.379926025390625 1.0274999999999996 Q 7.379926025390625 1.0439999999999998 7.369426025390625 1.0544999999999998 Q 7.358926025390625 1.0649999999999997 7.342426025390625 1.0649999999999997 L 7.178926025390625 1.0649999999999997 M 7.379926025390625 0.4904999999999997 L 7.571926025390625 0.4904999999999997 Q 7.654426025390625 0.4904999999999997 7.694176025390625 0.45299999999999974 Q 7.733926025390625 0.41549999999999976 7.733926025390625 0.34799999999999975 Q 7.733926025390625 0.28049999999999975 7.694926025390625 0.24149999999999971 Q 7.655926025390625 0.20249999999999968 7.571926025390625 0.20249999999999968 L 7.379926025390625 0.20249999999999968 L 7.379926025390625 0.4904999999999997 M 8.201936279296875 1.0649999999999997 Q 8.185436279296875 1.0649999999999997 8.174936279296874 1.0544999999999998 Q 8.164436279296876 1.0439999999999998 8.164436279296876 1.0274999999999996 L 8.164436279296876 0.05249999999999977 Q 8.164436279296876 0.03599999999999981 8.174936279296874 0.025499999999999634 Q 8.185436279296875 0.01499999999999968 8.201936279296875 0.01499999999999968 L 8.578436279296875 0.01499999999999968 Q 8.728436279296876 0.01499999999999968 8.828936279296874 0.062249999999999694 Q 8.929436279296874 0.10949999999999971 8.982686279296875 0.2002499999999997 Q 9.035936279296875 0.2909999999999997 9.038936279296875 0.42449999999999977 Q 9.040436279296875 0.4904999999999997 9.040436279296875 0.5399999999999997 Q 9.040436279296875 0.5894999999999997 9.038936279296875 0.6539999999999997 Q 9.034436279296875 0.7934999999999997 8.983436279296875 0.8849999999999998 Q 8.932436279296875 0.9764999999999997 8.833436279296874 1.0207499999999998 Q 8.734436279296876 1.0649999999999997 8.585936279296876 1.0649999999999997 L 8.201936279296875 1.0649999999999997 M 8.402936279296876 0.8714999999999997 L 8.578436279296875 0.8714999999999997 Q 8.653436279296875 0.8714999999999997 8.701436279296875 0.8489999999999998 Q 8.749436279296875 0.8264999999999997 8.772686279296876 0.7777499999999997 Q 8.795936279296875 0.7289999999999996 8.797436279296875 0.6509999999999997 Q 8.798936279296875 0.6074999999999997 8.799686279296875 0.5729999999999997 Q 8.800436279296875 0.5384999999999998 8.799686279296875 0.5039999999999997 Q 8.798936279296875 0.4694999999999997 8.797436279296875 0.42749999999999966 Q 8.794436279296875 0.3149999999999997 8.739686279296874 0.2617499999999997 Q 8.684936279296876 0.20849999999999969 8.570936279296875 0.20849999999999969 L 8.402936279296876 0.20849999999999969 L 8.402936279296876 0.8714999999999997" fill="#000000" fill-rule="nonzero"></path></g><g></g></g><defs><clipPath id="SvgjsClipPath3963"><path d=" M 9.516912841796875 -0.5844814233012113 h 2.2339628466024224 v 2.2339628466024224 h -2.2339628466024224 Z"></path></clipPath><clipPath id="SvgjsClipPath39589b0bf44e-67b3-490a-b4e3-cbdf78207b5d"><path d=" M 9.516912841796875 -0.5844814233012113 L 11.750875688399297 -0.5844814233012113 L 11.750875688399297 1.6494814233012112 L 9.516912841796875 1.6494814233012112 Z"></path></clipPath></defs></svg>