<svg xmlns="http://www.w3.org/2000/svg" version="1.1" xmlns:xlink="http://www.w3.org/1999/xlink" viewBox="0 0 15.847302758896639 4.392689083352655"><g transform="matrix(0.7225584017752161,0,0,0.7225584017752161,2.807707842385116,1.799077042505347)"><g transform="matrix(1,0,0,1,0,0)" clip-path="url(#SvgjsClipPath31185)"><g clip-path="url(#a0dcfe6d0-3ddb-4feb-95cf-8b863f707ea787db437c-3b49-4baa-b53f-f27dfa28a4c7)"><path d=" M 10.780644080981238 -0.7307686522047401 C 10.703580613143465 -0.778601333753586 10.613809501833101 -0.7835924771528286 10.57637592633878 -0.7833466606684977 L 10.57637592633878 -0.7907104675251964 L 10.48658878351857 -0.7907104675251964 C 10.48658878351857 -0.7907104675251964 10.438804196499268 -0.8383614586291018 10.442261658789748 -0.7475482991786397 C 10.442261658789748 -0.7475482991786397 10.448610136689428 -0.666044103113061 10.509230619260103 -0.7282677366685029 L 10.57637592633878 -0.7375820438900019 L 10.57637592633878 -0.7433694189450125 C 10.84570529177972 -0.7497927105573142 10.837139121684444 -0.48092825890195956 10.837139121684444 -0.48092825890195956 L 10.836358921538524 0.27401691517151205 L 10.90250493117003 0.27401691517151205 L 10.90250493117003 -0.4368255753110061 C 10.90250493117003 -0.5370759502251328 10.880899799731981 -0.6685450186492982 10.780644080981238 -0.7307686522047401" fill="#000000" transform="matrix(1,0,0,1,0,0)" fill-rule="nonzero"></path></g><g clip-path="url(#a0dcfe6d0-3ddb-4feb-95cf-8b863f707ea787db437c-3b49-4baa-b53f-f27dfa28a4c7)"><path d=" M 10.192688457317763 -0.7907104675251961 L 10.106358776788033 -0.7907104675251961 L 10.106358776788033 -0.7833092538121862 C 10.071581088091811 -0.7838543251470071 9.979763287357562 -0.7800548573131082 9.900359219082029 -0.7307686522047399 C 9.800108844167902 -0.6685396748126821 9.78022442812017 -0.5370759502251325 9.78022442812017 -0.4368202314743899 L 9.78022442812017 0.2740169151715125 L 9.842918319297809 0.2740169151715125 L 9.842138119151889 -0.48092291506534324 C 9.842138119151889 -0.48092291506534324 9.833571949056616 -0.751967652059982 10.106358776788033 -0.7432037600099196 L 10.106358776788033 -0.7375820438900017 L 10.17177802463978 -0.7282677366685026 C 10.232393163373837 -0.6660441031130606 10.237015582046585 -0.7475429553420236 10.237015582046585 -0.7475429553420236 C 10.240473044337065 -0.8383614586291016 10.192688457317763 -0.7907104675251961 10.192688457317763 -0.7907104675251961" fill="#000000" transform="matrix(1,0,0,1,0,0)" fill-rule="nonzero"></path></g><g clip-path="url(#SvgjsClipPath3118387db437c-3b49-4baa-b53f-f27dfa28a4c7)"><path d=" M 12.431830764673691 1.576099336079675 L 12.204487923523814 0.9733145658071011 L 12.037081553857778 1.415704080053688 L 11.94788757690193 1.3183554084219908 L 11.885557066614172 1.386382448542291 L 11.25602639407906 1.386382448542291 L 11.25602639407906 1.3192371414636126 L 11.856010993964906 1.3192371414636126 L 11.94788757690193 1.2189707350396382 L 12.012895349334253 1.2899208537888311 L 12.204578768746284 0.783303767255843 L 12.433011752565804 1.3889421462813032 L 12.551217418509326 1.0870474405031225 L 12.634260639520281 1.3192371414636126 L 13.58219847297668 1.3192371414636126 L 13.58219847297668 1.3863824485422906 L 12.586951653959794 1.3863824485422906 L 12.548369153593056 1.2784796995942074 Z" fill="#000000" transform="matrix(1,0,0,1,0,0)" fill-rule="nonzero"></path></g><g clip-path="url(#b0dcfe6d0-3ddb-4feb-95cf-8b863f707ea787db437c-3b49-4baa-b53f-f27dfa28a4c7)"><path d=" M 14.160636772042531 1.3386267334626711 C 14.160636772042531 1.501084710422392 14.028937918643884 1.6327835638210408 13.866474597847546 1.6327835638210408 C 13.704016620887824 1.6327835638210408 13.572317767489176 1.501084710422392 13.572317767489176 1.3386267334626711 C 13.572317767489176 1.1761687565029502 13.704016620887824 1.0444645592676856 13.866474597847546 1.0444645592676856 C 14.028937918643884 1.0444645592676856 14.160636772042531 1.1761687565029502 14.160636772042531 1.3386267334626711" fill="#000000" transform="matrix(1,0,0,1,0,0)" fill-rule="nonzero"></path></g><g clip-path="url(#b0dcfe6d0-3ddb-4feb-95cf-8b863f707ea787db437c-3b49-4baa-b53f-f27dfa28a4c7)"><path d=" M 14.062668215363392 1.3386267334626711 C 14.062668215363392 1.4469783646864895 13.97483157290798 1.5348150071418996 13.866479941684162 1.5348150071418996 C 13.758128310460345 1.5348150071418996 13.670291668004934 1.4469783646864895 13.670291668004934 1.3386267334626711 C 13.670291668004934 1.2302751022388527 13.758128310460345 1.1424384597834423 13.866479941684162 1.1424384597834423 C 13.97483157290798 1.1424384597834423 14.062668215363392 1.2302751022388527 14.062668215363392 1.3386267334626711" fill="#000000" transform="matrix(1,0,0,1,0,0)" fill-rule="nonzero"></path></g><g clip-path="url(#b0dcfe6d0-3ddb-4feb-95cf-8b863f707ea787db437c-3b49-4baa-b53f-f27dfa28a4c7)"><path d=" M 10.902392710601097 1.3203240930532418 C 10.766873014022085 1.3208103821852881 10.75521276252621 1.4622670812445553 10.744925877040618 1.5870777292453195 C 10.731870884187995 1.7456293616388239 10.715278271495652 1.8413909137956015 10.59725429599707 1.8355554442110478 C 10.545274797234292 1.8329423081058764 10.504271538880555 1.8139182497533026 10.471914608171332 1.7773931264836835 C 10.416098234718344 1.7143732612724736 10.398207069728338 1.6140427288091086 10.39272963719705 1.5457004023284706 C 10.392596041281653 1.538341939308388 10.37807149335966 1.09786551857029 10.398720078043464 1.0496854876414115 C 10.419464851786355 1.001291703247897 10.534448184250495 1.006416442562537 10.72813019855687 0.8422644693955786 C 10.902515618843262 0.6944699801098643 10.891325624969586 0.5154193904577998 10.902606464065732 0.32025713340882234 C 10.907378510163724 0.23763073165390625 10.903253068296255 0.20788159321323751 10.875759028907492 0.20784953019354224 C 10.832335012566757 0.20780143566399933 10.837449064208165 0.23509240926135766 10.836369609211756 0.3109321385140912 C 10.834889366469154 0.41489647987626255 10.83217469746828 0.5825646975364781 10.760230625108532 0.7024643596872379 C 10.692502839838722 0.8153422205247164 10.34418622537829 0.9874618540859693 10.34418622537829 0.9874618540859693 C 10.34418622537829 0.9874618540859693 10.129850282551493 0.8768444361370132 10.001940209313512 0.7904185665481979 C 9.87403013607553 0.7039926969593829 9.853280018496022 0.4931195602596842 9.849822556205542 0.32027316491866975 C 9.847818617474582 0.21992125710884125 9.845472673200206 0.206871608092834 9.810839268092613 0.20784953019354202 C 9.784205586399008 0.2086030111563827 9.7802351157934 0.2316349469708755 9.779738138988122 0.2559761227562619 C 9.774795090118422 0.45350035558946333 9.811710313461003 0.6003757049772446 9.811710313461003 0.6003757049772446 C 9.822077356495832 0.6550057467015046 9.860007908795431 0.7283873111109281 9.860007908795431 0.7283873111109281 C 9.939518853803282 0.9012337064519423 10.237507215015246 0.9853884454790033 10.296946709693808 1.0466288130971213 C 10.344036597953046 1.0951401618961851 10.308484052947518 1.205426261974956 10.323484202328327 1.5106555218014535 C 10.323858270891439 1.5223745555001038 10.326984415311735 1.5359425566678526 10.326984415311735 1.5509320183754287 L 10.326984415311735 1.5497937811762434 L 10.32584617811255 1.5497937811762434 C 10.332509942372567 1.6265312749804473 10.353847881979823 1.7439674284512812 10.422083331728142 1.821137773021372 C 10.46641580029358 1.8712683043150515 10.524123891908593 1.898783719050277 10.594165558433085 1.90230530738015 C 10.598991042897234 1.902540436191249 10.603538647857357 1.9028183156952756 10.608139691183641 1.9028183156952756 C 10.786399393016554 1.9028076280220434 10.801084256037024 1.7240135425275418 10.811921556694053 1.592517754920297 C 10.82339477390837 1.4532627165467775 10.836059666688033 1.3876617782500924 10.902670590105123 1.3874319932756087 C 11.139616305653757 1.3865876670902981 11.604369776137851 1.3883030386439992 11.609034945503524 1.388313726317231 L 11.609270074314624 1.3211791069117846 C 11.604594217275718 1.3211577315653211 11.13957355496083 1.3194797668679312 10.902392710601097 1.3203240930532418" fill="#000000" transform="matrix(1,0,0,1,0,0)" fill-rule="nonzero"></path></g></g><g><path d=" M 0.5048929751757647 1.1151010494679463 Q 0.35621283524670516 1.1151010494679463 0.25631836623186827 1.071736008655304 Q 0.1564238972170314 1.0283709678426616 0.10531509911641718 0.958677152250915 Q 0.05420630101580296 0.8889833366591683 0.05110879810061422 0.8099970123218554 Q 0.05110879810061422 0.7976070006611005 0.06040130684618044 0.787540116186737 Q 0.06969381559174666 0.7774732317123736 0.083632578710096 0.7774732317123736 L 0.24934898467269362 0.7774732317123736 Q 0.26948275362142043 0.7774732317123736 0.280324013824581 0.7859913647291427 Q 0.2911652740277416 0.7945094977459117 0.3004577827733078 0.8068995094066667 Q 0.31129904297646843 0.833228284185771 0.33530469056918116 0.8580083075072809 Q 0.3593103381618939 0.8827883308287908 0.4011266275169419 0.8990502211335317 Q 0.4429429168719899 0.9153121114382725 0.5048929751757647 0.9153121114382725 Q 0.6055618199193988 0.9153121114382725 0.6558962422912158 0.8827883308287908 Q 0.7062306646630329 0.850264550219309 0.7062306646630329 0.7945094977459117 Q 0.7062306646630329 0.754241959848458 0.6791275141551314 0.7294619365269481 Q 0.6520243636472299 0.7046819132054383 0.593946183987441 0.6845481442567114 Q 0.5358680043276521 0.6644143753079845 0.43984541395680116 0.641183103444069 Q 0.3236890546372234 0.6164030801225591 0.24237960311351894 0.5769099179539027 Q 0.1610701515898145 0.5374167557852463 0.1200282379635637 0.4746923217526743 Q 0.07898632433731288 0.4119678877201023 0.07898632433731288 0.31904280026444 Q 0.07898632433731288 0.2261177128087778 0.1300951224379271 0.1541007700306396 Q 0.1812039205385413 0.0820838272525013 0.27412900799420353 0.04104191362625054 Q 0.3670540954498658 -2.220446049250313e-16 0.4956004664301985 -2.220446049250313e-16 Q 0.5993668140890213 -2.220446049250313e-16 0.6791275141551314 0.02787752623669837 Q 0.7588882142212414 0.05575505247339696 0.8123201395082472 0.1006688447436338 Q 0.865752064795253 0.14558263701387053 0.8936295910319516 0.19669143511448473 Q 0.9215071172686503 0.24780023321509903 0.9230558687262447 0.2958115284005245 Q 0.9230558687262447 0.3082015400612794 0.9137633599806785 0.31826842453564286 Q 0.9044708512351123 0.3283353090100063 0.8905320881167629 0.3283353090100063 L 0.7170719248661934 0.3283353090100063 Q 0.7015844102902498 0.3283353090100063 0.6891943986294948 0.3221403031796287 Q 0.6768043869687398 0.31594529734925125 0.669060629680768 0.3004577827733076 Q 0.6597681209352018 0.26019024487585396 0.6140799529361678 0.22998959145276376 Q 0.5683917849371339 0.19978893802967346 0.4956004664301985 0.19978893802967346 Q 0.41971164500807434 0.19978893802967346 0.3755722284666348 0.22766646426637216 Q 0.33143281192519525 0.25554399050307086 0.33143281192519525 0.3128477944340625 Q 0.33143281192519525 0.3500178294163274 0.3538897080603136 0.3755722284666345 Q 0.376346604195432 0.4011266275169416 0.4297785294824378 0.42048602073687125 Q 0.4832104547694435 0.4398454139568009 0.5714892878523227 0.4630766858207165 Q 0.7077794161206272 0.4909542120574151 0.7929607462883176 0.5296729984972743 Q 0.878142076456008 0.5683917849371336 0.9184096143534616 0.6295674675121112 Q 0.9586771522509152 0.6907431500870889 0.9586771522509152 0.7836682375427511 Q 0.9586771522509152 0.8874345852015739 0.9005989725911263 0.9617746551661037 Q 0.8425207929313374 1.0361147251306335 0.7410775724589062 1.0756078872992898 Q 0.6396343519864749 1.1151010494679463 0.5048929751757647 1.1151010494679463 M 1.5533629255574612 1.1151010494679463 Q 1.4124265429163734 1.1151010494679463 1.310208946715145 1.0686385057401153 Q 1.2079913505139166 1.0221759620122841 1.150687546582925 0.9284764988278247 Q 1.093383742651933 0.8347770356433653 1.08873748827915 0.6922919015446832 Q 1.0871887368215556 0.6256955888681253 1.0871887368215556 0.5598736519203646 Q 1.0871887368215556 0.4940517149726038 1.08873748827915 0.4259066508384516 Q 1.093383742651933 0.2865190196549583 1.151461922311722 0.1912708050129045 Q 1.2095401019715109 0.0960225903708507 1.3125320739015365 0.04801129518542524 Q 1.415524045831562 -2.220446049250313e-16 1.5533629255574612 -2.220446049250313e-16 Q 1.6896530538257657 -2.220446049250313e-16 1.7926450257557913 0.04801129518542524 Q 1.895636997685817 0.0960225903708507 1.954489553074403 0.1912708050129045 Q 2.0133421084629894 0.2865190196549583 2.016439611378178 0.4259066508384516 Q 2.0195371142933665 0.4940517149726038 2.0195371142933665 0.5598736519203646 Q 2.0195371142933665 0.6256955888681253 2.016439611378178 0.6922919015446832 Q 2.011793357005395 0.8347770356433653 1.954489553074403 0.9284764988278247 Q 1.8971857491434112 1.0221759620122841 1.7949681529421828 1.0686385057401153 Q 1.6927505567409544 1.1151010494679463 1.5533629255574612 1.1151010494679463 M 1.5533629255574612 0.9153121114382725 Q 1.6431905100979347 0.9153121114382725 1.7012686897577236 0.8603314346936725 Q 1.7593468694175125 0.8053507579490723 1.762444372332701 0.6845481442567114 Q 1.76554187524789 0.6164030801225591 1.76554187524789 0.5567761490051758 Q 1.76554187524789 0.49714921788779265 1.762444372332701 0.4305529052112347 Q 1.7608956208751068 0.3500178294163274 1.7330180946384082 0.2989090313157132 Q 1.7051405684017094 0.24780023321509903 1.6594524004026754 0.2237945856223863 Q 1.6137642324036416 0.19978893802967346 1.5533629255574612 0.19978893802967346 Q 1.4929616187112806 0.19978893802967346 1.4464990749834497 0.2237945856223863 Q 1.4000365312556184 0.24780023321509903 1.372933380747717 0.2989090313157132 Q 1.3458302302398155 0.3500178294163274 1.3427327273246268 0.4305529052112347 Q 1.3411839758670325 0.49714921788779265 1.3411839758670325 0.5567761490051758 Q 1.3411839758670325 0.6164030801225591 1.3427327273246268 0.6845481442567114 Q 1.34737898169741 0.8053507579490723 1.4046827856284017 0.8603314346936725 Q 1.4619865895593933 0.9153121114382725 1.5533629255574612 0.9153121114382725 M 2.2487568673751195 1.0996135348920026 Q 2.2317206013415816 1.0996135348920026 2.2208793411384207 1.088772274688842 Q 2.21003808093526 1.0779310144856815 2.21003808093526 1.0608947484521434 L 2.21003808093526 0.054206301015802705 Q 2.21003808093526 0.037170034982264566 2.2208793411384207 0.026328774779104114 Q 2.2317206013415816 0.01548751457594344 2.2487568673751195 0.01548751457594344 L 2.4237657820832834 0.01548751457594344 Q 2.4408020481168213 0.01548751457594344 2.4516433083199822 0.026328774779104114 Q 2.4624845685231427 0.037170034982264566 2.4624845685231427 0.054206301015802705 L 2.4624845685231427 1.0608947484521434 Q 2.4624845685231427 1.0779310144856815 2.4516433083199822 1.088772274688842 Q 2.4408020481168213 1.0996135348920026 2.4237657820832834 1.0996135348920026 L 2.2487568673751195 1.0996135348920026 M 2.7288297392355987 1.0996135348920026 Q 2.7117934732020608 1.0996135348920026 2.7009522129989003 1.088772274688842 Q 2.6901109527957394 1.0779310144856815 2.6901109527957394 1.0608947484521434 L 2.6901109527957394 0.054206301015802705 Q 2.6901109527957394 0.037170034982264566 2.7009522129989003 0.026328774779104114 Q 2.7117934732020608 0.01548751457594344 2.7288297392355987 0.01548751457594344 L 2.8697661218766863 0.01548751457594344 Q 2.892997393740602 0.01548751457594344 2.9038386539437626 0.026328774779104114 Q 2.914679914146923 0.037170034982264566 2.917777417062112 0.04336504081264203 L 3.331294056239809 0.6891943986294945 L 3.331294056239809 0.054206301015802705 Q 3.331294056239809 0.037170034982264566 3.3421353164429695 0.026328774779104114 Q 3.35297657664613 0.01548751457594344 3.368464091222074 0.01548751457594344 L 3.5264367398966994 0.01548751457594344 Q 3.5434730059302373 0.01548751457594344 3.554314266133398 0.026328774779104114 Q 3.5651555263365586 0.037170034982264566 3.5651555263365586 0.054206301015802705 L 3.5651555263365586 1.0608947484521434 Q 3.5651555263365586 1.076382263028087 3.554314266133398 1.087997898960045 Q 3.5434730059302373 1.0996135348920026 3.5264367398966994 1.0996135348920026 L 3.3839516057980172 1.0996135348920026 Q 3.360720333934102 1.0996135348920026 3.350653449459738 1.087997898960045 Q 3.340586564985375 1.076382263028087 3.335940310612592 1.071736008655304 L 2.9239724228924895 0.44604041978717834 L 2.9239724228924895 1.0608947484521434 Q 2.9239724228924895 1.0779310144856815 2.9131311626893286 1.088772274688842 Q 2.902289902486168 1.0996135348920026 2.88525363645263 1.0996135348920026 L 2.7288297392355987 1.0996135348920026 M 4.172298615444351 1.0996135348920026 Q 4.155262349410813 1.0996135348920026 4.144421089207652 1.088772274688842 Q 4.133579829004492 1.0779310144856815 4.133579829004492 1.0608947484521434 L 4.133579829004492 0.054206301015802705 Q 4.133579829004492 0.037170034982264566 4.144421089207652 0.026328774779104114 Q 4.155262349410813 0.01548751457594344 4.172298615444351 0.01548751457594344 L 4.632277798349879 0.01548751457594344 Q 4.760824169330212 0.01548751457594344 4.8429079965827135 0.05265754955820823 Q 4.9249918238352155 0.08982758454047324 4.964484986003871 0.15797264867462546 Q 5.0039781481725285 0.2261177128087778 5.0039781481725285 0.3174940488068456 Q 5.0039781481725285 0.3747978527378374 4.983070003495004 0.41816289355047975 Q 4.96216185881748 0.4615279343631221 4.93196120539439 0.4894054605998207 Q 4.901760551971299 0.5172829868365194 4.873883025734601 0.5312217499548687 Q 4.9342843325807815 0.5590992761915674 4.979972500579815 0.6233724616817338 Q 5.025660668578849 0.6876456471719001 5.025660668578849 0.7759244802547792 Q 5.025660668578849 0.8734958220832245 4.982295627766207 0.94628714059016 Q 4.938930586953564 1.0190784590970954 4.853749256785874 1.0593459969945491 Q 4.768567926618184 1.0996135348920026 4.646216561468228 1.0996135348920026 L 4.172298615444351 1.0996135348920026 M 4.379831310761997 0.9184096143534614 L 4.616790283773936 0.9184096143534614 Q 4.69267910519606 0.9184096143534614 4.731397891635919 0.8758189492696161 Q 4.770116678075778 0.833228284185771 4.770116678075778 0.7743757287971849 Q 4.770116678075778 0.7139744219510045 4.730623515907122 0.6729325083247537 Q 4.691130353738465 0.6318905946985028 4.616790283773936 0.6318905946985028 L 4.379831310761997 0.6318905946985028 L 4.379831310761997 0.9184096143534614 M 4.379831310761997 0.4537841770751503 L 4.6028515206555864 0.4537841770751503 Q 4.6756428391625215 0.4537841770751503 4.712038498415989 0.4173885178216825 Q 4.748434157669457 0.38099285856821485 4.748434157669457 0.3236890546372231 Q 4.748434157669457 0.2663852507062314 4.712038498415989 0.23153834291035813 Q 4.6756428391625215 0.19669143511448473 4.6028515206555864 0.19669143511448473 L 4.379831310761997 0.19669143511448473 L 4.379831310761997 0.4537841770751503 M 5.638977589180685 1.1151010494679463 Q 5.498041206539598 1.1151010494679463 5.395823610338368 1.0686385057401153 Q 5.29360601413714 1.0221759620122841 5.236302210206149 0.9284764988278247 Q 5.178998406275157 0.8347770356433653 5.174352151902374 0.6922919015446832 Q 5.17280340044478 0.6256955888681253 5.17280340044478 0.5598736519203646 Q 5.17280340044478 0.4940517149726038 5.174352151902374 0.4259066508384516 Q 5.178998406275157 0.2865190196549583 5.237076585934946 0.1912708050129045 Q 5.295154765594734 0.0960225903708507 5.39814673752476 0.04801129518542524 Q 5.501138709454786 -2.220446049250313e-16 5.638977589180685 -2.220446049250313e-16 Q 5.7752677174489895 -2.220446049250313e-16 5.878259689379015 0.04801129518542524 Q 5.981251661309041 0.0960225903708507 6.040104216697626 0.1912708050129045 Q 6.098956772086213 0.2865190196549583 6.102054275001402 0.4259066508384516 Q 6.105151777916591 0.4940517149726038 6.105151777916591 0.5598736519203646 Q 6.105151777916591 0.6256955888681253 6.102054275001402 0.6922919015446832 Q 6.0974080206286185 0.8347770356433653 6.040104216697626 0.9284764988278247 Q 5.982800412766635 1.0221759620122841 5.880582816565407 1.0686385057401153 Q 5.778365220364178 1.1151010494679463 5.638977589180685 1.1151010494679463 M 5.638977589180685 0.9153121114382725 Q 5.728805173721159 0.9153121114382725 5.786883353380947 0.8603314346936725 Q 5.8449615330407365 0.8053507579490723 5.848059035955925 0.6845481442567114 Q 5.8511565388711135 0.6164030801225591 5.8511565388711135 0.5567761490051758 Q 5.8511565388711135 0.49714921788779265 5.848059035955925 0.4305529052112347 Q 5.846510284498331 0.3500178294163274 5.818632758261632 0.2989090313157132 Q 5.790755232024933 0.24780023321509903 5.745067064025899 0.2237945856223863 Q 5.699378896026865 0.19978893802967346 5.638977589180685 0.19978893802967346 Q 5.578576282334504 0.19978893802967346 5.532113738606673 0.2237945856223863 Q 5.485651194878843 0.24780023321509903 5.458548044370941 0.2989090313157132 Q 5.4314448938630395 0.3500178294163274 5.428347390947851 0.4305529052112347 Q 5.426798639490256 0.49714921788779265 5.426798639490256 0.5567761490051758 Q 5.426798639490256 0.6164030801225591 5.428347390947851 0.6845481442567114 Q 5.432993645320634 0.8053507579490723 5.490297449251625 0.8603314346936725 Q 5.547601253182617 0.9153121114382725 5.638977589180685 0.9153121114382725 M 6.208899976144269 1.0996135348920026 Q 6.19496121302592 1.0996135348920026 6.185668704280354 1.0895466504176392 Q 6.176376195534788 1.0794797659432758 6.176376195534788 1.0670897542825208 Q 6.176376195534788 1.0593459969945491 6.177924946992381 1.0531509911641714 L 6.546527793899842 0.05730380393099144 Q 6.551174048272625 0.0402675378974533 6.565112811390974 0.02787752623669837 Q 6.579051574509323 0.01548751457594344 6.603831597830833 0.01548751457594344 L 6.802071784402913 0.01548751457594344 Q 6.826851807724423 0.01548751457594344 6.840790570842772 0.02787752623669837 Q 6.854729333961122 0.0402675378974533 6.859375588333904 0.05730380393099144 L 7.227978435241365 1.0531509911641714 Q 7.229527186698959 1.0593459969945491 7.229527186698959 1.0670897542825208 Q 7.229527186698959 1.0794797659432758 7.220234677953393 1.0895466504176392 Q 7.210942169207827 1.0996135348920026 7.197003406089477 1.0996135348920026 L 7.035933254499663 1.0996135348920026 Q 7.012701982635747 1.0996135348920026 7.001860722432586 1.088772274688842 Q 6.991019462229426 1.0779310144856815 6.987921959314237 1.0686385057401153 L 6.92132564663768 0.8951783424895458 L 6.484577735596067 0.8951783424895458 L 6.417981422919509 1.0686385057401153 Q 6.41488392000432 1.0779310144856815 6.40404265980116 1.088772274688842 Q 6.3932013995979995 1.0996135348920026 6.369970127734083 1.0996135348920026 L 6.208899976144269 1.0996135348920026 M 6.541881539527059 0.6953894044598721 L 6.862473091249093 0.6953894044598721 L 6.702951691116874 0.2493489846726934 L 6.541881539527059 0.6953894044598721 M 7.399858085529838 1.0996135348920026 Q 7.3828218194963 1.0996135348920026 7.37198055929314 1.088772274688842 Q 7.361139299089979 1.0779310144856815 7.361139299089979 1.0608947484521434 L 7.361139299089979 0.054206301015802705 Q 7.361139299089979 0.037170034982264566 7.37198055929314 0.026328774779104114 Q 7.3828218194963 0.01548751457594344 7.399858085529838 0.01548751457594344 L 7.810277221792346 0.01548751457594344 Q 8.003871153991643 0.01548751457594344 8.115381258938438 0.10454072338761977 Q 8.226891363885231 0.193593932199296 8.226891363885231 0.360859089619488 Q 8.226891363885231 0.47391794602387705 8.17268506286943 0.5498067674460012 Q 8.118478761853627 0.6256955888681253 8.027102425855558 0.6628656238503903 L 8.245476381376365 1.0500534882489827 Q 8.250122635749147 1.0593459969945491 8.250122635749147 1.0670897542825208 Q 8.250122635749147 1.0794797659432758 8.240830127003582 1.0895466504176392 Q 8.231537618258015 1.0996135348920026 8.217598855139666 1.0996135348920026 L 8.04568744334669 1.0996135348920026 Q 8.017809917109993 1.0996135348920026 8.003871153991643 1.0849003960448562 Q 7.989932390873293 1.0701872571977096 7.983737385042916 1.0577972455369546 L 7.7947897072164025 0.7031331617478438 L 7.607390780847484 0.7031331617478438 L 7.607390780847484 1.0608947484521434 Q 7.607390780847484 1.0779310144856815 7.596549520644324 1.088772274688842 Q 7.585708260441163 1.0996135348920026 7.568671994407625 1.0996135348920026 L 7.399858085529838 1.0996135348920026 M 7.607390780847484 0.5064417266333588 L 7.805630967419564 0.5064417266333588 Q 7.890812297587254 0.5064417266333588 7.931854211213505 0.4677229401934996 Q 7.972896124839755 0.4290041537536403 7.972896124839755 0.3593103381618936 Q 7.972896124839755 0.28961652257014703 7.932628586942302 0.2493489846726934 Q 7.892361049044848 0.20908144677523977 7.805630967419564 0.20908144677523977 L 7.607390780847484 0.20908144677523977 L 7.607390780847484 0.5064417266333588 M 8.454568415319772 1.0996135348920026 Q 8.437532149286234 1.0996135348920026 8.426690889083073 1.088772274688842 Q 8.415849628879913 1.0779310144856815 8.415849628879913 1.0608947484521434 L 8.415849628879913 0.054206301015802705 Q 8.415849628879913 0.037170034982264566 8.426690889083073 0.026328774779104114 Q 8.437532149286234 0.01548751457594344 8.454568415319772 0.01548751457594344 L 8.843305031175959 0.01548751457594344 Q 8.998180176935396 0.01548751457594344 9.101946524594219 0.06427318549016614 Q 9.205712872253041 0.11305885640438873 9.260693548997642 0.20675831958884816 Q 9.315674225742242 0.3004577827733076 9.318771728657431 0.4382966624992065 Q 9.320320480115024 0.5064417266333588 9.320320480115024 0.557550524733973 Q 9.320320480115024 0.6086593228345872 9.318771728657431 0.6752556355111452 Q 9.314125474284648 0.8192895210674216 9.261467924726439 0.9137633599806783 Q 9.20881037516823 1.0082371988939347 9.106592778967002 1.0539253668929687 Q 9.004375182765774 1.0996135348920026 8.851048788463931 1.0996135348920026 L 8.454568415319772 1.0996135348920026 M 8.662101110637417 0.8998245968623289 L 8.843305031175959 0.8998245968623289 Q 8.920742604055677 0.8998245968623289 8.970302650698697 0.8765933249984134 Q 9.019862697341717 0.8533620531344978 9.04386834493443 0.8030276307626807 Q 9.067873992527142 0.7526932083908637 9.069422743984736 0.6721581325959565 Q 9.07097149544233 0.6272443403257197 9.071745871171128 0.5916230568010492 Q 9.072520246899925 0.5560017732763787 9.071745871171128 0.5203804897517081 Q 9.07097149544233 0.4847592062270376 9.069422743984736 0.44139416541439525 Q 9.066325241069547 0.32523780609481745 9.009795812867353 0.2702571293502174 Q 8.95326638466516 0.21527645260561723 8.835561273887986 0.21527645260561723 L 8.662101110637417 0.21527645260561723 L 8.662101110637417 0.8998245968623289" fill="#ebebeb" fill-rule="nonzero"></path></g><g></g></g><defs><clipPath id="SvgjsClipPath31185"><path d=" M 9.779282605210811 -0.8032047808032726 h 4.38135416683172 v 2.706023096498548 h -4.38135416683172 Z"></path></clipPath><clipPath id="a0dcfe6d0-3ddb-4feb-95cf-8b863f707ea787db437c-3b49-4baa-b53f-f27dfa28a4c7"><path d=" M 9.779278569039157 1.9028183156952756 L 14.16064211587915 1.9028183156952756 L 14.16064211587915 -0.8032043575331509 L 9.779278569039157 -0.8032043575331509 Z"></path></clipPath><clipPath id="SvgjsClipPath3118387db437c-3b49-4baa-b53f-f27dfa28a4c7"><path d=" M 9.779282605210811 -0.8032047808032726 L 14.160636772042531 -0.8032047808032726 L 14.160636772042531 1.9028183156952752 L 9.779282605210811 1.9028183156952752 Z"></path></clipPath><clipPath id="b0dcfe6d0-3ddb-4feb-95cf-8b863f707ea787db437c-3b49-4baa-b53f-f27dfa28a4c7"><path d=" M 9.779278569039157 1.9028183156952756 L 14.16064211587915 1.9028183156952756 L 14.16064211587915 -0.8032043575331509 L 9.779278569039157 -0.8032043575331509 Z"></path></clipPath></defs></svg>